<?xml version="1.0" encoding="UTF-8" standalone="no"?>
<!-- Generator: Adobe Illustrator 26.2.1, SVG Export Plug-In . SVG Version: 6.00 Build 0)  -->

<svg
   version="1.1"
   x="0px"
   y="0px"
   viewBox="0 0 323.80385 199.34175"
   xml:space="preserve"
   id="svg39"
   sodipodi:docname="gb-logo.svg"
   width="323.80386"
   height="199.34175"
   inkscape:version="1.1 (c68e22c387, 2021-05-23)"
   xmlns:inkscape="http://www.inkscape.org/namespaces/inkscape"
   xmlns:sodipodi="http://sodipodi.sourceforge.net/DTD/sodipodi-0.dtd"
   xmlns="http://www.w3.org/2000/svg"
   xmlns:svg="http://www.w3.org/2000/svg"><defs
   id="defs43" /><sodipodi:namedview
   id="namedview41"
   pagecolor="#ffffff"
   bordercolor="#666666"
   borderopacity="1.0"
   inkscape:pageshadow="2"
   inkscape:pageopacity="0.0"
   inkscape:pagecheckerboard="0"
   showgrid="false"
   inkscape:zoom="0.9882526"
   inkscape:cx="154.81872"
   inkscape:cy="292.9413"
   inkscape:window-width="1920"
   inkscape:window-height="1017"
   inkscape:window-x="-8"
   inkscape:window-y="-8"
   inkscape:window-maximized="1"
   inkscape:current-layer="layer1" />
<style
   type="text/css"
   id="style2">
	.st0{fill:url(#SVGID_1_);}
	.st1{fill:#2AA738;}
</style>

<g
   inkscape:groupmode="layer"
   id="layer1"
   inkscape:label="Layer 1"
   transform="translate(-142.67609,-128.50966)"
   style="display:none"><rect
     style="fill:#47555e;stroke-width:0.856896"
     id="rect904"
     width="323.80386"
     height="199.34175"
     x="0"
     y="0"
     transform="translate(142.67609,128.50966)" /></g><g
   inkscape:groupmode="layer"
   id="layer2"
   inkscape:label="Layer 2"
   transform="translate(-142.67609,-128.50966)"
   style="display:inline"><g
     id="g37">
	
		<linearGradient
   id="SVGID_1_"
   gradientUnits="userSpaceOnUse"
   x1="288.1394"
   y1="232.2861"
   x2="356.8183"
   y2="113.3308"
   gradientTransform="matrix(1.8,0,0,1.8,-262.5111,-61.3447)">
		<stop
   offset="0.3483"
   style="stop-color:#E3C800"
   id="stop4" />
		<stop
   offset="0.5941"
   style="stop-color:#F1D400"
   id="stop6" />
		<stop
   offset="0.6629"
   style="stop-color:#F6D800"
   id="stop8" />
		<stop
   offset="0.6698"
   style="stop-color:#F6DA0B"
   id="stop10" />
		<stop
   offset="0.7085"
   style="stop-color:#F8E243"
   id="stop12" />
		<stop
   offset="0.7484"
   style="stop-color:#FAEA75"
   id="stop14" />
		<stop
   offset="0.7886"
   style="stop-color:#FCF0A0"
   id="stop16" />
		<stop
   offset="0.8291"
   style="stop-color:#FDF6C2"
   id="stop18" />
		<stop
   offset="0.8701"
   style="stop-color:#FEFADD"
   id="stop20" />
		<stop
   offset="0.9118"
   style="stop-color:#FEFDF0"
   id="stop22" />
		<stop
   offset="0.9545"
   style="stop-color:#FFFEFB"
   id="stop24" />
		<stop
   offset="1"
   style="stop-color:#FFFFFF"
   id="stop26" />
	</linearGradient>
	<path
   class="st0"
   d="m 443.36,293.84 c 0,-77.31 -62.71,-139.98 -140.05,-139.98 -77.34,0 -140.04,62.67 -140.04,139.98 h 45.18 c 0,0 -11.53,-119.66 93.88,-119.66 105.42,0 95.86,119.74 95.86,119.74 z"
   id="path29"
   style="fill:url(#SVGID_1_)" />
	<g
   id="g35">
		<path
   class="st1"
   d="m 272.05,255.71 v -4.89 h 16.31 v 32.69 c -6.32,2.29 -11.38,3.44 -15.19,3.44 -7.24,0 -12.96,-3.58 -17.16,-10.74 -4.2,-7.16 -6.3,-16.9 -6.3,-29.23 0,-26.62 7.98,-39.93 23.95,-39.93 4.68,0 9.58,1.12 14.7,3.35 v 13.71 h -4.02 v -0.98 c 0,-7.29 -3.36,-10.93 -10.09,-10.93 -4.47,0 -7.64,2.68 -9.53,8.05 -1.89,5.37 -2.84,14.29 -2.84,26.78 0,23.19 4.06,34.78 12.17,34.78 1.07,0 2.16,-0.32 3.26,-0.98 V 266.07 L 277.13,260 c 0.01,-2.86 -1.69,-4.29 -5.08,-4.29 z"
   id="path31" />
		<path
   class="st1"
   d="m 323.43,248.43 c 7.36,0 11.05,5.62 11.05,16.85 0,9.92 -2.5,14.88 -7.52,14.88 -2.18,0 -3.5,-0.6 -3.96,-1.79 -0.46,-1.19 -0.7,-4.05 -0.7,-8.58 v -21.37 h 1.13 z m 6.47,36.63 c 11.16,0 16.75,-6.37 16.75,-19.13 0,-10.43 -4.75,-17.11 -14.24,-20.07 7.98,-4.46 11.98,-11.08 11.98,-19.83 0,-11.49 -4.97,-17.24 -14.91,-17.24 h -23.5 v 4.89 c 3.42,0 5.13,1.42 5.13,4.24 l 0.14,6.12 v 45.75 l -0.14,6.08 c 0,2.86 -1.71,4.29 -5.13,4.29 v 4.89 h 23.92 z m -7.6,-71.37 h 0.67 c 6.92,0 10.37,4.82 10.37,14.46 0,10.27 -3.31,15.4 -9.92,15.4 h -1.12 z"
   id="path33" />
	</g>
</g></g></svg>
