<?xml version="1.0" encoding="UTF-8" standalone="no"?>
<!-- Created with Inkscape (http://www.inkscape.org/) -->

<svg
   width="256"
   height="255"
   viewBox="0 0 67.733332 67.468752"
   version="1.1"
   id="svg4517"
   inkscape:version="1.1 (c68e22c387, 2021-05-23)"
   sodipodi:docname="catovis-logo.svg"
   inkscape:export-filename="D:\Codes\CATOVIS\LS\pict\catovis-logo.png"
   inkscape:export-xdpi="85.720001"
   inkscape:export-ydpi="85.720001"
   xmlns:inkscape="http://www.inkscape.org/namespaces/inkscape"
   xmlns:sodipodi="http://sodipodi.sourceforge.net/DTD/sodipodi-0.dtd"
   xmlns="http://www.w3.org/2000/svg"
   xmlns:svg="http://www.w3.org/2000/svg"
   xmlns:rdf="http://www.w3.org/1999/02/22-rdf-syntax-ns#"
   xmlns:cc="http://creativecommons.org/ns#"
   xmlns:dc="http://purl.org/dc/elements/1.1/">
  <defs
     id="defs4511">
    <inkscape:perspective
       sodipodi:type="inkscape:persp3d"
       inkscape:vp_x="0 : 33.734376 : 1"
       inkscape:vp_y="0 : 1000 : 0"
       inkscape:vp_z="67.733332 : 33.734376 : 1"
       inkscape:persp3d-origin="33.866666 : 22.489584 : 1"
       id="perspective5980" />
  </defs>
  <sodipodi:namedview
     id="base"
     pagecolor="#ffffff"
     bordercolor="#666666"
     borderopacity="1.0"
     inkscape:pageopacity="0.0"
     inkscape:pageshadow="2"
     inkscape:zoom="3.959798"
     inkscape:cx="65.154839"
     inkscape:cy="188.01464"
     inkscape:document-units="mm"
     inkscape:current-layer="layer1"
     showgrid="false"
     units="px"
     inkscape:window-width="1920"
     inkscape:window-height="1017"
     inkscape:window-x="-8"
     inkscape:window-y="-8"
     inkscape:window-maximized="1"
     inkscape:pagecheckerboard="0" />
  <metadata
     id="metadata4514">
    <rdf:RDF>
      <cc:Work
         rdf:about="">
        <dc:format>image/svg+xml</dc:format>
        <dc:type
           rdf:resource="http://purl.org/dc/dcmitype/StillImage" />
      </cc:Work>
    </rdf:RDF>
  </metadata>
  <g
     inkscape:label="レイヤー 1"
     inkscape:groupmode="layer"
     id="layer1"
     transform="translate(0,-229.53123)">
    <g
       aria-label="＠"
       transform="matrix(-0.50708415,0.85181645,-0.82456919,-0.52384037,0.76623153,-1.3229167)"
       id="text5064"
       style="font-size:61.7532px;line-height:1.25;letter-spacing:0px;word-spacing:0px;fill:#008080;stroke:#008080;stroke-width:1.2;stroke-miterlimit:4;stroke-dasharray:none">
      <path
         id="path3492"
         style="font-family:'UD Digi Kyokasho N-B';-inkscape-font-specification:'UD Digi Kyokasho N-B';stroke:#008080;stroke-width:4.53543;stroke-miterlimit:4;stroke-dasharray:none"
         d="m 163.36523,13.859375 c -7.29476,-0.09783 -14.56203,0.819494 -21.79882,2.751953 -22.07275,5.869987 -40.49034,20.810109 -55.255863,44.820313 -34.606359,56.434329 -8.59034,84.044669 -58.757813,112.615239 l -8.90039,4.91992 c -7.196648,3.97785 -12.1707038,8.59829 -14.9218752,13.85937 -4.40371553,8.43434 -3.02653744,19.12752 4.1328124,32.08008 3.6291608,6.56581 4.5602128,8.83592 13.7480468,17.41602 10.366514,10.80276 23.943479,1.8676 16.493296,-9.55821 -9.980764,-14.2605 -24.971014,-18.80185 -4.008921,-33.46133 0.547126,-0.30241 1.508987,-0.79569 2.888672,-1.48046 32.731206,9.41591 58.821333,18.29562 78.267575,26.63867 3.81417,1.63218 6.06324,2.56954 6.74805,2.81445 2.25572,0.70132 4.16159,0.62242 5.71875,-0.23828 2.39889,-1.32596 3.49937,-3.9591 3.29883,-7.90039 -0.19247,-2.93271 -1.04876,-5.77189 -2.56641,-8.51758 -2.24348,-4.05887 -5.50413,-6.778 -9.78125,-8.1543 L 61.874598,181.94001 c 8.46131,-6.85878 10.242138,-12.38328 15.402353,-20.14481 4.218456,-6.43327 7.451831,-13.30042 8.670801,-15.65626 3.322321,-11.1327 7.132169,-22.67231 9.096964,-33.27538 2.226315,-11.74222 5.112334,-24.199047 12.992584,-37.013113 10.06921,-16.373528 18.79753,-28.527397 34.18086,-33.962333 19.98692,-6.974305 40.01242,-5.445322 60.20428,6.972035 17.60317,10.825396 27.5427,23.941662 31.90373,43.391804 4.24651,19.201317 1.23501,37.150527 -9.0332,53.847657 -6.20869,10.09594 -14.24411,18.08645 -24.10742,23.97266 -10.75414,6.31948 -22.35612,9.08645 -34.80469,8.29882 -5.22134,-0.3568 -12.02343,-2.1313 -20.40625,-5.32421 -3.98723,-1.20334 -7.53419,-2.76152 -10.64063,-4.67188 -6.92476,-4.25851 -12.81208,-9.84095 -17.6621,-16.74805 -6.09491,-8.65377 -7.29117,-15.98909 -3.58985,-22.00781 3.50234,-5.69514 9.29702,-6.05499 17.38672,-1.08008 3.30059,2.02976 7.21189,4.87887 11.73242,8.55078 10.33061,8.58281 18.926,16.72401 25.78711,24.42188 2.57416,2.92093 4.41152,4.7199 5.51172,5.39648 3.62417,2.22875 7.13068,2.11129 10.51953,-0.35351 1.16941,-0.88632 2.17202,-2.01006 3.00781,-3.36914 1.75116,-2.84755 1.85445,-5.7706 0.31055,-8.77149 l -3.50391,-6.70508 c 11.00508,0.52427 19.63238,-4.29247 25.88086,-14.45312 7.20367,-11.71387 8.24605,-24.72117 3.125,-39.019532 -5.09125,-14.636839 -14.98294,-26.471426 -29.67382,-35.505859 -9.83705,-6.049477 -19.3124,-8.843481 -28.42579,-8.382813 -12.67215,0.591133 -22.33204,6.289831 -28.97851,17.097656 -7.16387,11.649159 -7.08213,25.078554 0.24414,40.287108 -12.07656,-5.0185 -21.2398,-2.44776 -27.488282,7.71289 -5.691292,9.25461 -6.690103,20.23536 -2.998047,32.94141 4.957699,17.31968 15.299039,30.81512 31.025389,40.48633 8.34857,5.1341 17.53855,8.46609 27.56836,9.99609 5.61501,0.81047 11.22222,0.98827 16.82227,0.60352 -1.67932,1.83383 -3.16386,3.93558 -4.45313,6.30859 -2.25211,4.19986 -3.3789,8.55243 -3.3789,13.05664 0,10.16491 4.26171,18.1085 12.7832,23.83008 4.86942,3.28685 10.10329,4.92969 15.70312,4.92969 5.05203,0 9.76987,-1.27754 14.15235,-3.83399 4.44334,-2.49557 7.94355,-5.93587 10.5,-10.31836 2.73905,-4.50421 4.10742,-9.31288 4.10742,-14.42578 0,-5.78242 -1.70274,-11.13807 -5.11133,-16.06836 -2.55644,-3.77381 -5.84405,-6.75604 -9.86133,-8.94726 -1.60446,-0.89138 -3.22618,-1.61856 -4.86328,-2.1836 16.74082,-7.60088 30.317,-19.80182 40.68555,-36.66211 5.69129,-9.2546 9.66247,-19.11967 11.91406,-29.59765 C 257.7315,108.07403 256.37985,91.052729 250.05859,74.5 242.69632,55.434 229.98586,40.350071 211.92969,29.246094 195.60064,19.204245 179.41371,14.074609 163.36523,13.859375 Z m -6.17773,59.585937 c 4.67868,-0.06613 9.76854,1.593627 15.26953,4.976563 10.16065,6.24848 17.19838,13.876946 21.11328,22.884765 3.80038,8.75899 3.73114,16.34101 -0.20898,22.74805 -2.34815,3.81832 -5.68181,6.04997 -10.00195,6.69336 -4.84275,0.76795 -10.20838,-0.65953 -16.09766,-4.28125 -10.80783,-6.64648 -18.31106,-14.60542 -22.50977,-23.87696 -4.0343,-8.813658 -4.20132,-16.22932 -0.5,-22.248043 2.82575,-4.594948 7.13695,-6.894749 12.93555,-6.896485 z m 35.49414,132.062498 c 2.79992,0 5.35695,0.79049 7.66992,2.37305 3.89554,2.73905 5.84375,6.45186 5.84375,11.13867 0,4.01729 -1.61385,7.39572 -4.83984,10.13477 -2.49558,2.19124 -5.35604,3.28711 -8.58203,3.28711 -4.93029,0 -8.73393,-2.12987 -11.41211,-6.39063 -1.39996,-2.19122 -2.10156,-4.53565 -2.10156,-7.03125 0,-3.59118 1.24856,-6.69518 3.74414,-9.3125 2.73904,-2.79992 5.9648,-4.19922 9.67773,-4.19922 z"
         transform="matrix(-0.13859943,-0.22537644,0.22537644,-0.13859943,195.51848,-120.23772)"
         sodipodi:nodetypes="scccccsccccccscscccccscscscccscssccscsccscscscscscccscsccscccsccsscscscscscscscscscs" />
    </g>
    <g
       aria-label="λ"
       transform="matrix(-0.57611315,-1.0422929,0.7348988,-0.40620529,0,0)"
       id="text5064-7"
       style="font-size:46.5468px;line-height:1.25;letter-spacing:0px;word-spacing:0px;fill:#008080;stroke-width:1.16367" />
    <g
       aria-label="。"
       id="text5144"
       style="font-size:49.4733px;line-height:1.25;letter-spacing:0px;word-spacing:0px;fill:#008080;stroke-width:1.23683" />
  </g>
</svg>
