<?xml version="1.0" encoding="UTF-8" standalone="no"?>
<!-- Generator: Adobe Illustrator 26.2.1, SVG Export Plug-In . SVG Version: 6.00 Build 0)  -->

<svg
   version="1.1"
   x="0px"
   y="0px"
   viewBox="0 0 1003.606 162.91381"
   xml:space="preserve"
   id="svg39"
   sodipodi:docname="gb-logo-footer.svg"
   width="1003.606"
   height="162.91382"
   inkscape:version="1.1 (c68e22c387, 2021-05-23)"
   xmlns:inkscape="http://www.inkscape.org/namespaces/inkscape"
   xmlns:sodipodi="http://sodipodi.sourceforge.net/DTD/sodipodi-0.dtd"
   xmlns:xlink="http://www.w3.org/1999/xlink"
   xmlns="http://www.w3.org/2000/svg"
   xmlns:svg="http://www.w3.org/2000/svg"><defs
   id="defs43"><filter
     style="color-interpolation-filters:sRGB"
     inkscape:label="Drop Shadow"
     id="filter6488"
     x="-0.05563926"
     y="-0.1112666"
     width="1.1327002"
     height="1.2654405"><feGaussianBlur
       stdDeviation="0.4"
       result="blur"
       id="feGaussianBlur6482" /><feComposite
       in="SourceGraphic"
       in2="blur"
       operator="in"
       result="composite1"
       id="feComposite6484" /><feComposite
       in="composite1"
       in2="composite1"
       operator="in"
       result="fbSourceGraphic"
       id="feComposite6486" /><feColorMatrix
       result="fbSourceGraphicAlpha"
       in="fbSourceGraphic"
       values="0 0 0 -1 0 0 0 0 -1 0 0 0 0 -1 0 0 0 0 1 0"
       id="feColorMatrix6886" /><feColorMatrix
       id="feColorMatrix6888"
       in="fbSourceGraphic"
       values="1 0 0 0 0 0 1 0 0 0 0 0 1 0 0 -0.2125 -0.7154 -0.0721 1 0 "
       result="colormatrix" /><feComposite
       in2="colormatrix"
       id="feComposite6890"
       in="fbSourceGraphic"
       operator="arithmetic"
       k2="1"
       k3="0"
       k4="0"
       result="composite"
       k1="0" /><feGaussianBlur
       id="feGaussianBlur6892"
       stdDeviation="1 0.01"
       result="blur1" /><feGaussianBlur
       id="feGaussianBlur6894"
       in="composite"
       stdDeviation="0.01 1"
       result="blur2" /><feBlend
       in2="blur1"
       id="feBlend6896"
       in="blur2"
       mode="darken"
       result="fbSourceGraphic" /><feColorMatrix
       result="fbSourceGraphicAlpha"
       in="fbSourceGraphic"
       values="0 0 0 -1 0 0 0 0 -1 0 0 0 0 -1 0 0 0 0 1 0"
       id="feColorMatrix6916" /><feFlood
       id="feFlood6918"
       flood-opacity="0.498039"
       flood-color="rgb(0,0,0)"
       result="flood"
       in="fbSourceGraphic" /><feComposite
       in2="fbSourceGraphic"
       id="feComposite6920"
       in="flood"
       operator="in"
       result="composite1" /><feGaussianBlur
       id="feGaussianBlur6922"
       in="composite1"
       stdDeviation="3"
       result="blur" /><feOffset
       id="feOffset6924"
       dx="6"
       dy="6"
       result="offset" /><feComposite
       in2="offset"
       id="feComposite6926"
       in="fbSourceGraphic"
       operator="over"
       result="composite2" /></filter><linearGradient
     inkscape:collect="always"
     xlink:href="#SVGID_1_"
     id="linearGradient7723"
     gradientUnits="userSpaceOnUse"
     gradientTransform="matrix(1.8,0,0,1.8,-262.5111,-61.3447)"
     x1="288.1394"
     y1="232.2861"
     x2="356.8183"
     y2="113.3308" /><filter
     style="color-interpolation-filters:sRGB"
     inkscape:label="Cross Blur"
     id="filter8427"
     x="-0.076583454"
     y="-0.092916145"
     width="1.1531669"
     height="1.1858323"><feColorMatrix
       in="SourceGraphic"
       values="1 0 0 0 0 0 1 0 0 0 0 0 1 0 0 -0.2125 -0.7154 -0.0721 1 0 "
       result="colormatrix"
       id="feColorMatrix8417" /><feComposite
       in="SourceGraphic"
       in2="colormatrix"
       operator="arithmetic"
       k2="1"
       k3="0"
       k4="0"
       result="composite"
       id="feComposite8419"
       k1="0" /><feGaussianBlur
       stdDeviation="1 0.01"
       result="blur1"
       id="feGaussianBlur8421" /><feGaussianBlur
       in="composite"
       stdDeviation="0.01 1"
       result="blur2"
       id="feGaussianBlur8423" /><feBlend
       in="blur2"
       in2="blur1"
       mode="darken"
       result="blend"
       id="feBlend8425" /></filter><filter
     style="color-interpolation-filters:sRGB"
     inkscape:label="Drop Shadow"
     id="filter8669"
     x="-0.025706023"
     y="-0.05140654"
     width="1.0692635"
     height="1.1385121"><feFlood
       flood-opacity="0.501961"
       flood-color="rgb(222,222,222)"
       result="flood"
       id="feFlood8659" /><feComposite
       in="flood"
       in2="SourceGraphic"
       operator="in"
       result="composite1"
       id="feComposite8661" /><feGaussianBlur
       in="composite1"
       stdDeviation="3"
       result="blur"
       id="feGaussianBlur8663" /><feOffset
       dx="5"
       dy="5"
       result="offset"
       id="feOffset8665" /><feComposite
       in="SourceGraphic"
       in2="offset"
       operator="over"
       result="composite2"
       id="feComposite8667" /></filter><linearGradient
     inkscape:collect="always"
     xlink:href="#SVGID_1_"
     id="linearGradient20348"
     gradientUnits="userSpaceOnUse"
     gradientTransform="matrix(1.8,0,0,1.8,-262.5111,-61.3447)"
     x1="288.1394"
     y1="232.2861"
     x2="356.8183"
     y2="113.3308" /></defs><sodipodi:namedview
   id="namedview41"
   pagecolor="#ffffff"
   bordercolor="#666666"
   borderopacity="1.0"
   inkscape:pageshadow="2"
   inkscape:pageopacity="0.0"
   inkscape:pagecheckerboard="0"
   showgrid="false"
   inkscape:zoom="0.9882526"
   inkscape:cx="505.43757"
   inkscape:cy="-146.21768"
   inkscape:window-width="1920"
   inkscape:window-height="1017"
   inkscape:window-x="-8"
   inkscape:window-y="-8"
   inkscape:window-maximized="1"
   inkscape:current-layer="layer5" />
<style
   type="text/css"
   id="style2">
	.st0{fill:url(#SVGID_1_);}
	.st1{fill:#2AA738;}
</style>

<g
   inkscape:groupmode="layer"
   id="layer3"
   inkscape:label="背景色"
   transform="translate(-14.35828,-14.172362)"
   style="display:none"
   sodipodi:insensitive="true"><rect
     style="fill:#168849;fill-opacity:0.8;stroke:none;stroke-width:9.87205;stroke-miterlimit:4;stroke-dasharray:none;paint-order:fill markers stroke"
     id="rect2832"
     width="1001.7682"
     height="162.91382"
     x="16.196135"
     y="14.172362" /></g><g
   inkscape:groupmode="layer"
   id="layer5"
   inkscape:label="白塗り"
   style="display:inline"
   transform="translate(-8.384,-5.4179203)"><g
     id="g7720"
     style="display:inline;stroke:#ffffff;stroke-width:10;stroke-miterlimit:4;stroke-dasharray:none;filter:url(#filter8427)"
     transform="translate(-147.686,-138.276)">
	
		<linearGradient
   id="linearGradient7710"
   gradientUnits="userSpaceOnUse"
   x1="288.1394"
   y1="232.2861"
   x2="356.8183"
   y2="113.3308"
   gradientTransform="matrix(1.8,0,0,1.8,-262.5111,-61.3447)">
		<stop
   offset="0.3483"
   style="stop-color:#E3C800"
   id="stop7686" />
		<stop
   offset="0.5941"
   style="stop-color:#F1D400"
   id="stop7688" />
		<stop
   offset="0.6629"
   style="stop-color:#F6D800"
   id="stop7690" />
		<stop
   offset="0.6698"
   style="stop-color:#F6DA0B"
   id="stop7692" />
		<stop
   offset="0.7085"
   style="stop-color:#F8E243"
   id="stop7694" />
		<stop
   offset="0.7484"
   style="stop-color:#FAEA75"
   id="stop7696" />
		<stop
   offset="0.7886"
   style="stop-color:#FCF0A0"
   id="stop7698" />
		<stop
   offset="0.8291"
   style="stop-color:#FDF6C2"
   id="stop7700" />
		<stop
   offset="0.8701"
   style="stop-color:#FEFADD"
   id="stop7702" />
		<stop
   offset="0.9118"
   style="stop-color:#FEFDF0"
   id="stop7704" />
		<stop
   offset="0.9545"
   style="stop-color:#FFFEFB"
   id="stop7706" />
		<stop
   offset="1"
   style="stop-color:#FFFFFF"
   id="stop7708" />
	</linearGradient>
	
	<g
   id="g7718"
   style="stroke:#ffffff;stroke-width:10;stroke-miterlimit:4;stroke-dasharray:none">
		<path
   class="st1"
   d="m 272.05,255.71 v -4.89 h 16.31 v 32.69 c -6.32,2.29 -11.38,3.44 -15.19,3.44 -7.24,0 -12.96,-3.58 -17.16,-10.74 -4.2,-7.16 -6.3,-16.9 -6.3,-29.23 0,-26.62 7.98,-39.93 23.95,-39.93 4.68,0 9.58,1.12 14.7,3.35 v 13.71 h -4.02 v -0.98 c 0,-7.29 -3.36,-10.93 -10.09,-10.93 -4.47,0 -7.64,2.68 -9.53,8.05 -1.89,5.37 -2.84,14.29 -2.84,26.78 0,23.19 4.06,34.78 12.17,34.78 1.07,0 2.16,-0.32 3.26,-0.98 V 266.07 L 277.13,260 c 0.01,-2.86 -1.69,-4.29 -5.08,-4.29 z"
   id="path7714"
   style="stroke:#ffffff;stroke-width:10;stroke-miterlimit:4;stroke-dasharray:none" />
		<path
   class="st1"
   d="m 323.43,248.43 c 7.36,0 11.05,5.62 11.05,16.85 0,9.92 -2.5,14.88 -7.52,14.88 -2.18,0 -3.5,-0.6 -3.96,-1.79 -0.46,-1.19 -0.7,-4.05 -0.7,-8.58 v -21.37 h 1.13 z m 6.47,36.63 c 11.16,0 16.75,-6.37 16.75,-19.13 0,-10.43 -4.75,-17.11 -14.24,-20.07 7.98,-4.46 11.98,-11.08 11.98,-19.83 0,-11.49 -4.97,-17.24 -14.91,-17.24 h -23.5 v 4.89 c 3.42,0 5.13,1.42 5.13,4.24 l 0.14,6.12 v 45.75 l -0.14,6.08 c 0,2.86 -1.71,4.29 -5.13,4.29 v 4.89 h 23.92 z m -7.6,-71.37 h 0.67 c 6.92,0 10.37,4.82 10.37,14.46 0,10.27 -3.31,15.4 -9.92,15.4 h -1.12 z"
   id="path7716"
   style="stroke:#ffffff;stroke-width:10;stroke-miterlimit:4;stroke-dasharray:none" />
	</g>
</g></g><g
   inkscape:groupmode="layer"
   id="layer6"
   inkscape:label="テキスト"
   transform="translate(1.83786)"
   style="display:none"
   sodipodi:insensitive="true"><g
     id="g8534"
     style="display:inline;filter:url(#filter8669)"
     transform="translate(-157.90786,-143.69392)">
	
		<linearGradient
   id="linearGradient8524"
   gradientUnits="userSpaceOnUse"
   x1="288.1394"
   y1="232.2861"
   x2="356.8183"
   y2="113.3308"
   gradientTransform="matrix(1.8,0,0,1.8,-262.5111,-61.3447)">
		<stop
   offset="0.3483"
   style="stop-color:#E3C800"
   id="stop8500" />
		<stop
   offset="0.5941"
   style="stop-color:#F1D400"
   id="stop8502" />
		<stop
   offset="0.6629"
   style="stop-color:#F6D800"
   id="stop8504" />
		<stop
   offset="0.6698"
   style="stop-color:#F6DA0B"
   id="stop8506" />
		<stop
   offset="0.7085"
   style="stop-color:#F8E243"
   id="stop8508" />
		<stop
   offset="0.7484"
   style="stop-color:#FAEA75"
   id="stop8510" />
		<stop
   offset="0.7886"
   style="stop-color:#FCF0A0"
   id="stop8512" />
		<stop
   offset="0.8291"
   style="stop-color:#FDF6C2"
   id="stop8514" />
		<stop
   offset="0.8701"
   style="stop-color:#FEFADD"
   id="stop8516" />
		<stop
   offset="0.9118"
   style="stop-color:#FEFDF0"
   id="stop8518" />
		<stop
   offset="0.9545"
   style="stop-color:#FFFEFB"
   id="stop8520" />
		<stop
   offset="1"
   style="stop-color:#FFFFFF"
   id="stop8522" />
	</linearGradient>
	<path
   class="st0"
   d="m 443.36,293.84 c 0,-77.31 -62.71,-139.98 -140.05,-139.98 -77.34,0 -140.04,62.67 -140.04,139.98 h 45.18 c 0,0 -11.53,-119.66 93.88,-119.66 105.42,0 95.86,119.74 95.86,119.74 z"
   id="path8526"
   style="fill:url(#linearGradient20348)" />
	<g
   id="g8532">
		<path
   class="st1"
   d="m 272.05,255.71 v -4.89 h 16.31 v 32.69 c -6.32,2.29 -11.38,3.44 -15.19,3.44 -7.24,0 -12.96,-3.58 -17.16,-10.74 -4.2,-7.16 -6.3,-16.9 -6.3,-29.23 0,-26.62 7.98,-39.93 23.95,-39.93 4.68,0 9.58,1.12 14.7,3.35 v 13.71 h -4.02 v -0.98 c 0,-7.29 -3.36,-10.93 -10.09,-10.93 -4.47,0 -7.64,2.68 -9.53,8.05 -1.89,5.37 -2.84,14.29 -2.84,26.78 0,23.19 4.06,34.78 12.17,34.78 1.07,0 2.16,-0.32 3.26,-0.98 V 266.07 L 277.13,260 c 0.01,-2.86 -1.69,-4.29 -5.08,-4.29 z"
   id="path8528" />
		<path
   class="st1"
   d="m 323.43,248.43 c 7.36,0 11.05,5.62 11.05,16.85 0,9.92 -2.5,14.88 -7.52,14.88 -2.18,0 -3.5,-0.6 -3.96,-1.79 -0.46,-1.19 -0.7,-4.05 -0.7,-8.58 v -21.37 h 1.13 z m 6.47,36.63 c 11.16,0 16.75,-6.37 16.75,-19.13 0,-10.43 -4.75,-17.11 -14.24,-20.07 7.98,-4.46 11.98,-11.08 11.98,-19.83 0,-11.49 -4.97,-17.24 -14.91,-17.24 h -23.5 v 4.89 c 3.42,0 5.13,1.42 5.13,4.24 l 0.14,6.12 v 45.75 l -0.14,6.08 c 0,2.86 -1.71,4.29 -5.13,4.29 v 4.89 h 23.92 z m -7.6,-71.37 h 0.67 c 6.92,0 10.37,4.82 10.37,14.46 0,10.27 -3.31,15.4 -9.92,15.4 h -1.12 z"
   id="path8530" />
	</g>
</g><text
     xml:space="preserve"
     style="font-style:normal;font-weight:normal;font-size:53.0346px;line-height:1.25;font-family:sans-serif;fill:#333333;fill-opacity:1;stroke:none;stroke-width:1.32587"
     x="306.24533"
     y="143.22327"
     id="text11191"><tspan
       sodipodi:role="line"
       id="tspan11189"
       x="306.24533"
       y="143.22327"
       style="font-style:normal;font-variant:normal;font-weight:normal;font-stretch:normal;font-family:HGSSoeiPresenceEB;-inkscape-font-specification:HGSSoeiPresenceEB;fill:#333333;stroke-width:1.32587">株式会社ゴールデンブリッジ</tspan></text><text
     xml:space="preserve"
     style="font-style:normal;font-weight:normal;font-size:37.3333px;line-height:1.25;font-family:sans-serif;fill:#333333;fill-opacity:1;stroke:none;stroke-width:1.32587"
     x="308.4841"
     y="74.713089"
     id="text11191-8"><tspan
       sodipodi:role="line"
       id="tspan11189-0"
       x="308.4841"
       y="74.713089"
       style="font-style:normal;font-variant:normal;font-weight:normal;font-stretch:normal;font-size:37.3333px;font-family:HGSSoeiPresenceEB;-inkscape-font-specification:HGSSoeiPresenceEB;fill:#333333;stroke-width:1.32587">中国語翻訳・通訳・ビジネス交流支援</tspan></text></g><g
   inkscape:groupmode="layer"
   id="g20772"
   inkscape:label="テキストOL"
   transform="translate(1.83786)"
   style="display:inline"
   sodipodi:insensitive="true"><g
     id="g20762"
     style="display:inline;filter:url(#filter8669)"
     transform="translate(-157.90786,-143.69392)">
	
		<linearGradient
   id="linearGradient20752"
   gradientUnits="userSpaceOnUse"
   x1="288.1394"
   y1="232.2861"
   x2="356.8183"
   y2="113.3308"
   gradientTransform="matrix(1.8,0,0,1.8,-262.5111,-61.3447)">
		<stop
   offset="0.3483"
   style="stop-color:#E3C800"
   id="stop20728" />
		<stop
   offset="0.5941"
   style="stop-color:#F1D400"
   id="stop20730" />
		<stop
   offset="0.6629"
   style="stop-color:#F6D800"
   id="stop20732" />
		<stop
   offset="0.6698"
   style="stop-color:#F6DA0B"
   id="stop20734" />
		<stop
   offset="0.7085"
   style="stop-color:#F8E243"
   id="stop20736" />
		<stop
   offset="0.7484"
   style="stop-color:#FAEA75"
   id="stop20738" />
		<stop
   offset="0.7886"
   style="stop-color:#FCF0A0"
   id="stop20740" />
		<stop
   offset="0.8291"
   style="stop-color:#FDF6C2"
   id="stop20742" />
		<stop
   offset="0.8701"
   style="stop-color:#FEFADD"
   id="stop20744" />
		<stop
   offset="0.9118"
   style="stop-color:#FEFDF0"
   id="stop20746" />
		<stop
   offset="0.9545"
   style="stop-color:#FFFEFB"
   id="stop20748" />
		<stop
   offset="1"
   style="stop-color:#FFFFFF"
   id="stop20750" />
	</linearGradient>
	<path
   class="st0"
   d="m 443.36,293.84 c 0,-77.31 -62.71,-139.98 -140.05,-139.98 -77.34,0 -140.04,62.67 -140.04,139.98 h 45.18 c 0,0 -11.53,-119.66 93.88,-119.66 105.42,0 95.86,119.74 95.86,119.74 z"
   id="path20754"
   style="fill:url(#linearGradient20348)" />
	<g
   id="g20760">
		<path
   class="st1"
   d="m 272.05,255.71 v -4.89 h 16.31 v 32.69 c -6.32,2.29 -11.38,3.44 -15.19,3.44 -7.24,0 -12.96,-3.58 -17.16,-10.74 -4.2,-7.16 -6.3,-16.9 -6.3,-29.23 0,-26.62 7.98,-39.93 23.95,-39.93 4.68,0 9.58,1.12 14.7,3.35 v 13.71 h -4.02 v -0.98 c 0,-7.29 -3.36,-10.93 -10.09,-10.93 -4.47,0 -7.64,2.68 -9.53,8.05 -1.89,5.37 -2.84,14.29 -2.84,26.78 0,23.19 4.06,34.78 12.17,34.78 1.07,0 2.16,-0.32 3.26,-0.98 V 266.07 L 277.13,260 c 0.01,-2.86 -1.69,-4.29 -5.08,-4.29 z"
   id="path20756" />
		<path
   class="st1"
   d="m 323.43,248.43 c 7.36,0 11.05,5.62 11.05,16.85 0,9.92 -2.5,14.88 -7.52,14.88 -2.18,0 -3.5,-0.6 -3.96,-1.79 -0.46,-1.19 -0.7,-4.05 -0.7,-8.58 v -21.37 h 1.13 z m 6.47,36.63 c 11.16,0 16.75,-6.37 16.75,-19.13 0,-10.43 -4.75,-17.11 -14.24,-20.07 7.98,-4.46 11.98,-11.08 11.98,-19.83 0,-11.49 -4.97,-17.24 -14.91,-17.24 h -23.5 v 4.89 c 3.42,0 5.13,1.42 5.13,4.24 l 0.14,6.12 v 45.75 l -0.14,6.08 c 0,2.86 -1.71,4.29 -5.13,4.29 v 4.89 h 23.92 z m -7.6,-71.37 h 0.67 c 6.92,0 10.37,4.82 10.37,14.46 0,10.27 -3.31,15.4 -9.92,15.4 h -1.12 z"
   id="path20758" />
	</g>
</g><g
     aria-label="株式会社ゴールデンブリッジ"
     id="text20766"
     style="font-size:53.0346px;line-height:1.25;fill:#f9f9f9;stroke-width:1.32587"><path
       d="m 336.69879,131.62195 q -2.48599,3.52183 -4.97199,5.80066 -2.90033,2.69316 -7.25083,5.17916 l -2.27883,-1.45017 v 6.00783 l -6.42215,0.82866 v -16.57331 q -2.07167,3.1075 -4.14333,5.17916 l -3.93616,-1.45016 q 2.69316,-4.55766 5.17916,-10.97982 2.07166,-4.972 2.48599,-9.52966 h -6.42216 l -1.24299,-3.52183 h 8.07949 v -10.56548 l 6.42215,0.41433 v 9.52965 l 2.486,-1.65733 3.729,3.1075 q 2.07166,-4.55766 3.10749,-9.94399 l 5.17916,2.486 v -3.93616 l 6.42216,0.41433 v 10.15115 h 2.27883 l 3.52183,-2.90033 5.59349,4.3505 -1.86449,2.07166 h -9.52966 v 6.00783 h 3.93616 l 3.93616,-2.90033 5.80066,4.55766 -1.65733,1.8645 h -9.94399 q 1.8645,2.69316 5.80066,7.04366 2.90033,3.10749 6.8365,5.59349 l -4.76483,6.00782 q -2.69317,-2.27883 -5.38633,-5.59349 -2.486,-2.90033 -4.55766,-6.83649 v 16.36615 l -6.42216,0.82866 z m -1.03583,-20.50948 h 1.03583 v -3.10749 z m -1.8645,3.52183 q -1.03583,1.45017 -4.76482,5.5935 l -3.52183,-2.07167 1.86449,-3.52183 h -5.17916 v 2.07167 q 2.69317,1.65733 4.76483,3.93616 h 9.73682 v -6.00783 z m -10.15115,14.91598 q -0.41433,-2.69316 -1.45017,-5.80066 v 15.53748 q 3.31467,-2.69316 5.80066,-5.80065 3.93616,-4.76483 5.80066,-9.32249 h -4.76482 l 0.41433,0.82866 z"
       style="font-family:HGSSoeiPresenceEB;-inkscape-font-specification:HGSSoeiPresenceEB;fill:#f9f9f9"
       id="path20809" /><path
       d="m 406.09954,147.78093 q -3.31467,0 -7.25083,-3.52183 -4.14332,-3.729 -6.62932,-8.28666 -2.69316,-4.97199 -3.93616,-11.18698 l -1.243,1.03583 h -8.07949 v 11.60132 l 11.60132,-1.65733 1.45016,3.31466 -27.34596,6.83649 -3.1075,-6.83649 10.97982,-1.243 v -12.01565 h -8.49382 l -1.03583,-3.52183 h 17.19481 l 3.52183,-2.27883 4.14332,3.52183 q -1.03583,-5.38633 -1.03583,-10.77265 h -24.44563 l -1.243,-3.52183 h 25.68863 v -9.529658 l 6.42216,0.414328 v 9.11533 h 7.04366 l 3.72899,-2.69317 5.5935,4.3505 -1.45017,1.8645 h -14.91598 q 0,6.21499 1.45017,11.39415 1.45016,5.38632 3.93616,9.32249 1.65733,2.69316 3.72899,4.35049 1.03583,0.82867 1.8645,-0.82867 l 2.27883,-5.38632 2.69316,1.8645 -0.82866,6.62932 q -0.20717,1.65733 1.45016,2.07166 l -0.20716,3.1075 q -0.41434,2.486 -3.52183,2.486 z m -6.21499,-38.74012 q -1.8645,-3.31466 -6.42216,-6.83649 l 2.69316,-2.278832 q 4.76483,1.243002 8.70099,4.764832 z"
       style="font-family:HGSSoeiPresenceEB;-inkscape-font-specification:HGSSoeiPresenceEB;fill:#f9f9f9"
       id="path20811" /><path
       d="m 450.64031,124.37112 h -25.48146 l -1.03584,-2.90033 q -3.72899,2.07167 -7.45799,3.52183 l -2.90033,-1.86449 q 5.17916,-3.1075 9.32249,-6.62933 3.93616,-3.31466 7.25083,-7.66516 3.31466,-4.14332 6.00782,-9.736817 l 6.62933,3.314667 -1.03583,1.65733 q 3.10749,4.76482 7.87232,7.87232 6.42216,4.35049 13.88015,7.04366 l -4.972,6.21499 q -4.55766,-2.07166 -9.32248,-5.59349 -2.90033,-2.07167 -6.215,-6.215 -1.86449,-2.27883 -3.52183,-5.59349 -1.24299,2.07167 -6.62932,7.25083 -3.1075,3.10749 -7.87232,5.80066 h 17.81631 l 3.72899,-2.69317 6.00783,4.14333 z m -32.73229,16.78048 h 9.73682 l 4.3505,-9.94398 h -13.67298 l -1.243,-3.52183 h 33.97529 l 3.72899,-2.486 6.21499,4.14333 -2.07166,1.8645 h -18.02348 l -7.04365,9.94398 14.91598,-0.6215 q -2.07167,-3.10749 -5.17916,-5.38632 l 2.69316,-2.69317 q 4.97199,2.27883 8.07949,5.17916 4.55766,4.14333 6.21499,7.04366 l -7.04366,4.55766 q -1.03583,-3.72899 -2.27883,-5.38632 l -29.83196,4.14332 z"
       style="font-family:HGSSoeiPresenceEB;-inkscape-font-specification:HGSSoeiPresenceEB;fill:#f9f9f9"
       id="path20813" /><path
       d="m 485.2371,107.79781 5.59349,4.3505 q -1.65733,3.52182 -4.14333,7.45799 h 8.70099 v -18.43781 l 6.62932,0.41433 v 18.02348 h 2.27883 l 3.729,-2.69317 5.59349,4.76483 -1.86449,1.45017 h -9.73683 v 19.47364 h 4.972 l 3.93616,-2.90033 6.00783,4.55766 -1.8645,1.8645 h -32.11079 l -0.82867,-2.486 v 3.52183 l -6.21499,0.82866 v -15.95181 q -2.07167,2.07166 -5.80066,4.3505 l -3.31466,-2.69317 q 4.76482,-4.14333 8.90815,-9.11532 3.52183,-4.35049 6.00783,-10.15115 h -12.63715 l -1.243,-3.52183 h 8.07949 v -10.35832 l 6.21499,0.41433 v 9.94399 z m 10.15115,15.33032 h -9.11532 l -0.6215,-1.65734 -1.45017,2.27883 q 4.14333,1.8645 7.04366,4.76483 l -5.17916,6.00783 q -1.45016,-3.729 -3.93616,-6.62933 v 14.70882 h 13.25865 z"
       style="font-family:HGSSoeiPresenceEB;-inkscape-font-specification:HGSSoeiPresenceEB;fill:#f9f9f9"
       id="path20815" /><path
       d="m 528.74205,112.14831 q 1.8645,1.03583 3.10749,1.24299 1.243,0.20717 3.93617,0 10.77265,-0.82866 22.7883,-2.27883 -1.45016,-2.27883 -4.76483,-4.76482 l 2.69317,-1.8645 q 4.35049,1.45016 8.70099,6.00782 l -3.52183,2.69317 2.48599,2.27883 q -1.243,1.03583 -2.48599,4.76483 -1.65733,4.76482 -2.07167,13.67298 h 1.03583 q 1.243,3.52183 1.65734,5.80066 -8.07949,-0.41434 -14.50165,0 -9.52966,0.41433 -17.40198,1.8645 -2.69316,-3.1075 -4.3505,-5.5935 l 2.486,-1.8645 q 3.31466,1.8645 7.04366,1.45017 9.11532,-0.82867 17.60914,-1.45017 l 1.8645,-17.19481 q -5.38633,0.41434 -12.22282,1.243 -8.28665,0.82867 -12.63715,1.8645 -2.07166,-2.69316 -3.52183,-5.59349 z m 36.87562,-2.27883 q -2.69317,-2.90033 -7.45799,-6.215 l 1.8645,-2.07166 q 5.59349,1.8645 9.32248,4.97199 z"
       style="font-family:HGSSoeiPresenceEB;-inkscape-font-specification:HGSSoeiPresenceEB;fill:#f9f9f9"
       id="path20817" /><path
       d="m 580.74082,121.47079 5.17916,0.41434 q 4.55766,-0.20717 13.88015,-0.6215 8.07949,-0.6215 16.57331,-1.243 1.65734,2.90033 2.69317,7.45799 -10.15116,-1.45016 -16.78048,-1.45016 -7.25083,0 -13.05148,0.82866 -5.17916,0.82867 -9.52966,2.07166 -2.486,-2.69316 -4.97199,-6.62932 l 2.48599,-1.45016 z"
       style="font-family:HGSSoeiPresenceEB;-inkscape-font-specification:HGSSoeiPresenceEB;fill:#f9f9f9"
       id="path20819" /><path
       d="m 637.91873,113.3913 q -0.41434,-1.45016 -2.07167,-3.10749 l 2.69317,-2.27883 q 4.35049,2.48599 6.62932,4.55766 -1.65733,13.25865 -4.55766,19.26647 -3.31466,7.04366 -11.39415,12.01566 l -2.69316,-2.07167 q 5.80065,-4.97199 8.49382,-11.18698 2.07166,-4.972 2.90033,-12.42999 0.41433,-3.52183 0,-4.76483 z m 18.02347,-4.97199 q -1.24299,5.80066 -1.24299,9.73682 v 16.36615 q 10.35832,-6.42216 18.64497,-17.19481 l 1.45017,4.14332 q -7.25083,12.63715 -19.88798,20.50948 -0.20716,0.20716 -3.31466,2.69316 -3.1075,-3.93616 -3.93616,-5.59349 0.82866,-2.27883 1.03583,-5.59349 0.41433,-6.215 0.20717,-21.54531 -0.20717,-2.90033 -2.27883,-5.17916 l 2.90033,-2.07166 q 4.14332,1.86449 6.42215,3.72899 z"
       style="font-family:HGSSoeiPresenceEB;-inkscape-font-specification:HGSSoeiPresenceEB;fill:#f9f9f9"
       id="path20821" /><path
       d="m 716.22764,102.41149 q 5.17916,1.86449 8.70098,5.80065 l -4.14332,2.90033 q -2.07167,-2.69316 -3.31467,-3.72899 l 1.8645,3.31466 q -19.26647,0.41433 -25.06713,1.65733 -2.486,-1.65733 -5.38633,-4.76482 l 2.486,-2.27884 q 2.48599,1.243 4.97199,1.243 2.07167,0 8.70099,-0.41433 6.00783,-0.41433 9.73682,-1.243 l -0.82866,-0.82866 z m 9.11532,5.17916 q -2.486,-3.31467 -7.45799,-6.00783 l 2.27883,-1.864498 q 4.97199,1.242998 8.90815,4.557658 z m -33.76813,10.77265 q 3.729,0 13.88015,-0.82867 7.87233,-0.6215 19.26648,-1.03583 1.65733,3.1075 2.486,6.83649 -4.3505,-0.6215 -10.35833,-0.6215 -5.17916,0 -8.90815,0.20717 l 1.243,0.6215 q -1.03583,6.83649 -4.14333,11.60132 -4.55766,7.04365 -13.67298,11.39415 l -2.69317,-2.69316 q 5.5935,-3.1075 9.94399,-10.15116 3.31466,-5.17916 3.93616,-10.56548 -10.15115,0.41433 -15.95181,1.65733 -2.486,-2.27883 -5.17916,-6.00783 l 2.69316,-1.65733 q 3.31467,1.243 7.45799,1.243 z"
       style="font-family:HGSSoeiPresenceEB;-inkscape-font-specification:HGSSoeiPresenceEB;fill:#f9f9f9"
       id="path20823" /><path
       d="m 749.58143,120.64213 q -4.76482,-6.42216 -12.22281,-10.97982 l 2.07166,-2.69316 q 10.56549,2.90033 15.53748,8.28665 -2.486,3.31466 -5.38633,5.38633 z m 11.39416,15.33031 q -5.80066,4.55766 -16.78048,8.28666 -3.31466,-4.14333 -4.972,-7.45799 l 2.07167,-2.07167 q 2.07166,1.243 3.52183,1.243 1.243,0 3.93616,-1.03583 6.62932,-2.486 12.84432,-8.07949 6.00782,-5.38633 13.05148,-15.53748 l 2.69316,3.1075 q -6.00782,13.46581 -16.36614,21.5453 z"
       style="font-family:HGSSoeiPresenceEB;-inkscape-font-specification:HGSSoeiPresenceEB;fill:#f9f9f9"
       id="path20825" /><path
       d="m 791.42906,108.41931 q 3.93616,1.8645 7.25082,1.65733 6.42216,-0.41433 13.67298,-1.03583 4.76483,-0.41433 10.15116,-1.8645 -1.243,-1.45016 -2.90033,-2.90033 l 2.27883,-2.07166 q 4.35049,1.65733 8.90815,6.21499 l -3.72899,3.1075 0.6215,0.6215 q -1.45017,3.31466 -2.90033,6.62932 -4.14333,10.15115 -9.94399,15.95181 -4.55766,4.55766 -8.49382,7.04366 -4.55766,2.90033 -8.90816,4.3505 l -2.27883,-2.90033 q 6.83649,-3.31467 14.29448,-10.77266 5.38633,-5.38632 7.87233,-13.05148 l 1.86449,-5.80066 q -15.33031,0.82867 -25.68863,2.90033 l -1.8645,-2.07166 -2.90033,-3.93617 z m 39.77594,-0.6215 q -2.48599,-3.10749 -7.45799,-6.21499 l 2.07167,-2.071665 q 5.38632,1.864495 9.11532,5.386325 z"
       style="font-family:HGSSoeiPresenceEB;-inkscape-font-specification:HGSSoeiPresenceEB;fill:#f9f9f9"
       id="path20827" /><path
       d="m 850.67865,130.37895 q 0.41434,-7.25082 0.41434,-16.15898 0,-4.35049 -2.486,-7.66516 l 2.486,-1.86449 q 3.72899,1.45016 7.04366,3.31466 -1.243,5.17916 -1.243,12.01565 0.20716,4.76483 0.20716,10.97982 z m 17.19482,-19.88798 q 0,-4.14332 -2.486,-7.25082 l 2.486,-1.8645 q 4.55766,2.486 7.45799,4.76483 -0.82867,4.76483 -0.82867,7.25082 v 5.5935 q 0,20.3023 -14.70881,27.55313 l -3.52183,-2.07166 q 7.04366,-4.972 9.73682,-12.42999 1.8645,-5.17916 1.8645,-12.22282 z"
       style="font-family:HGSSoeiPresenceEB;-inkscape-font-specification:HGSSoeiPresenceEB;fill:#f9f9f9"
       id="path20829" /><path
       d="m 906.82076,131.20762 q -1.8645,-6.00783 -5.38633,-9.52966 l 3.1075,-1.8645 q 4.76482,2.69317 7.45799,8.28666 -2.486,2.07166 -5.17916,3.1075 z m 7.87232,-2.27884 q -1.8645,-5.17916 -5.17916,-8.49382 l 3.1075,-2.07166 q 4.76482,2.69316 7.45799,7.66516 -1.65733,1.24299 -5.38633,2.90032 z m 11.18699,-10.77265 q 3.10749,1.45017 5.80066,3.31466 -4.14333,10.77266 -9.94399,16.57332 -4.972,4.97199 -12.01565,7.04365 l -2.90033,-2.27883 q 12.84431,-7.66515 16.98764,-19.05931 0.82867,-2.07166 -0.6215,-3.93616 z"
       style="font-family:HGSSoeiPresenceEB;-inkscape-font-specification:HGSSoeiPresenceEB;fill:#f9f9f9"
       id="path20831" /><path
       d="m 983.26511,113.59847 q -1.8645,-3.31466 -6.62933,-7.66516 l 2.07167,-1.65733 q 5.38632,2.27883 8.49382,5.80066 z m 4.55766,-4.14333 q -2.07167,-2.90033 -7.66516,-5.80066 l 1.65733,-1.86449 q 5.5935,1.03583 9.32249,4.14332 z m -22.37397,5.5935 q -4.76483,-4.3505 -11.60132,-7.25083 l 2.27883,-2.27883 q 8.28665,0.41433 14.08731,3.31466 z m -6.00783,11.60131 q -4.35049,-4.55766 -11.18699,-7.66515 l 1.8645,-2.486 q 7.04366,0 14.08732,3.93616 z m 10.97982,11.39416 q -7.66516,5.59349 -14.50165,7.87232 -2.69316,-2.90033 -5.17916,-7.25082 l 2.486,-2.07167 q 1.8645,1.243 2.69316,1.45017 0.82867,0.20716 2.27883,-0.6215 7.66516,-3.729 13.67298,-8.70099 8.70099,-7.04366 15.95182,-18.23065 l 2.48599,2.90033 q -3.10749,7.458 -7.87232,13.46582 -4.76483,5.80066 -12.01565,11.18699 z"
       style="font-family:HGSSoeiPresenceEB;-inkscape-font-specification:HGSSoeiPresenceEB;fill:#f9f9f9"
       id="path20833" /></g><g
     aria-label="中国語翻訳・通訳・ビジネス交流支援"
     id="text20770"
     style="font-size:37.3333px;line-height:1.25;fill:#f9f9f9;stroke-width:1.32587"><path
       d="m 324.67159,52.546441 v -7.874993 l 4.52083,0.291666 v 7.583327 h 7.29166 l 2.04166,-1.312499 4.22916,2.770831 -1.31249,1.458332 v 10.499991 l -4.66667,0.583333 v -1.604165 h -7.58332 v 12.395823 l -4.52083,0.583333 V 64.942264 h -7.4375 v 1.458332 l -4.52083,0.4375 V 51.817275 l 4.52083,0.4375 v 0.291666 z m 0,2.479165 h -7.4375 v 7.437493 h 7.4375 z m 12.10415,0 h -7.58332 v 7.437493 h 7.58332 z"
       style="font-family:HGSSoeiPresenceEB;-inkscape-font-specification:HGSSoeiPresenceEB;fill:#f9f9f9"
       id="path20774" /><path
       d="m 379.79654,77.04642 -4.66666,0.583333 v -1.895832 h -20.99999 v 1.604166 l -4.66666,0.583333 V 45.400614 l 4.66666,0.291666 v 0.4375 h 20.70832 l 2.1875,-1.312499 4.08333,2.770831 -1.3125,1.312499 z m -4.66666,-28.437475 h -20.99999 v 19.979149 h 8.02083 v -6.854161 h -6.27083 l -0.72916,-2.479164 h 6.99999 v -5.249996 h -6.85416 l -0.875,-2.479164 h 13.85416 l 2.47916,-1.895832 3.9375,3.062497 -1.3125,1.312499 h -6.85416 v 5.249996 h 1.45833 l 2.33333,-1.749999 3.79166,3.062498 -1.16666,1.166665 h -6.41666 v 0.875 l 0.875,-0.729166 q 3.49999,1.166665 5.54166,3.937496 l -3.64583,2.624998 q -0.875,-2.479165 -2.77083,-4.374996 v 4.520829 h 3.49999 l 2.33334,-1.749998 2.77083,2.333331 z m -0.4375,22.458314 h -20.27082 l -0.29167,-0.874999 v 3.062497 h 20.99999 v -2.624998 z"
       style="font-family:HGSSoeiPresenceEB;-inkscape-font-specification:HGSSoeiPresenceEB;fill:#f9f9f9"
       id="path20776" /><path
       d="m 409.69235,55.463105 h -3.35417 l -0.72916,4.52083 h 4.08333 z m 0.72916,12.104157 h -6.70832 v 5.395828 h 6.70832 z m 4.52083,9.479158 -4.52083,0.4375 v -2.041665 h -6.70832 v 1.895832 l -4.66667,0.583333 V 64.067265 l 4.66667,0.437499 v 0.583333 h 6.27082 l 1.89584,-1.604165 4.37499,2.770831 -1.3125,1.312499 z m 3.0625,-14.583321 h -20.99998 l -0.14583,-0.437499 -0.72917,0.437499 h -9.62499 l -0.72917,-2.479164 h 5.83333 l 2.33333,-1.749999 2.47917,2.041665 -0.14584,-0.291666 h 4.66666 l 0.72917,-4.52083 h -3.0625 l -0.58333,-1.749998 h -12.97915 l -0.875,-2.479165 h 9.04165 l 2.625,-1.749998 3.64583,2.916664 -0.58333,0.583333 h 3.0625 l 0.72916,-3.937497 h -4.22916 l -0.875,-2.479164 h 13.41666 l 2.62499,-1.749999 3.9375,3.062498 -1.3125,1.166665 h -8.89582 l -0.58334,3.937497 h 2.77083 l 1.89584,-1.312499 4.08333,2.624998 -1.45834,1.458332 v 3.499997 l 1.75,-1.166666 3.64583,2.916664 z M 386.35903,49.046444 385.62987,46.56728 h 6.27083 l 2.33333,-1.749999 3.64583,2.916664 -1.3125,1.312499 z m -0.29166,9.041659 -0.72917,-2.479164 h 6.27083 l 2.33333,-1.749999 3.64583,2.916664 -1.3125,1.312499 z m 10.64582,18.374984 -4.37499,0.583333 v -2.187498 h -1.89584 v 2.187498 l -4.37499,0.583333 V 64.358931 l 4.37499,0.4375 v 0.291666 h 1.75 l 2.04167,-1.312499 3.79166,2.916664 -1.3125,1.312499 z m -4.37499,-8.895825 h -1.89584 v 4.812496 h 1.89584 z"
       style="font-family:HGSSoeiPresenceEB;-inkscape-font-specification:HGSSoeiPresenceEB;fill:#f9f9f9"
       id="path20778" /><path
       d="m 432.734,48.900611 v 2.333331 l 1.02083,-2.479164 z m -3.79167,16.187486 h -0.72916 v 2.624998 h 0.72916 z m 4.375,0 H 432.734 v 2.624998 h 0.58333 z m 0,5.104163 H 432.734 v 3.062497 h 0.58333 z m -4.375,0 h -0.72916 v 3.062497 h 0.72916 z m 0,-19.541651 v -1.458332 l -1.60416,0.145834 0.72917,0.583332 z m 17.35416,1.458333 0.58333,-0.4375 3.5,2.479164 v -5.979161 h -3.64583 l -0.4375,0.583333 z m 0,13.270822 4.08333,-4.666663 V 58.37977 l -1.75,1.312498 q -1.3125,-3.64583 -2.33333,-5.395828 z m -18.08332,11.958323 -4.22916,0.583333 V 62.754766 l -0.58334,0.291666 -1.60416,-1.458332 q 2.47916,-2.041665 5.54166,-6.708327 h -4.66666 l -0.875,-2.479165 h 3.49999 l -0.43749,-1.458332 -0.58334,-1.312499 h -1.16666 l -1.16667,-2.041665 q 6.99999,-1.020832 13.27082,-3.208331 l 1.3125,1.312499 h 5.10416 l 2.04167,-1.312499 2.625,1.312499 h 3.93749 l 2.04167,-1.312499 3.79166,3.062498 -1.3125,1.312499 v 25.958311 q -0.4375,2.770831 -3.64583,2.770831 h -1.89583 q -0.4375,-2.041665 -2.47916,-2.187498 V 73.40059 h 2.33333 q 1.3125,0 1.3125,-1.020832 v -6.416662 l -3.0625,5.687496 -1.02083,-1.020833 v 3.791664 q -0.4375,3.062497 -3.64583,3.062497 h -1.89584 q -0.72916,-2.041665 -2.47916,-2.187498 V 73.40059 h 2.47916 q 1.16667,0 1.16667,-0.874999 v -6.999994 l -3.35416,6.416661 -1.02084,-1.166666 v 5.833329 l -4.22916,0.583333 v -1.458333 h -5.10416 z m 0.72916,-14.874988 v -2.916664 l -1.89583,1.458332 -1.45833,0.875 2.625,0.291666 v 0.4375 h 4.81249 l 2.04167,-1.312499 3.64583,2.479164 -1.16667,1.312499 v 0.729166 l 4.375,-4.520829 v -2.479165 l -1.75,1.458332 q -1.02083,-3.791663 -2.04166,-5.395828 h -5.10417 q 2.91667,0.874999 6.27083,3.062497 l -3.20833,3.791663 -3.35416,-4.374996 v 4.52083 z m 12.97916,-14.291654 h -5.24999 l -2.04167,0.4375 3.79166,1.312498 -1.3125,1.166666 1.02084,0.874999 0.4375,-0.291666 q 1.60416,1.020832 3.35416,2.770831 z"
       style="font-family:HGSSoeiPresenceEB;-inkscape-font-specification:HGSSoeiPresenceEB;fill:#f9f9f9"
       id="path20780" /><path
       d="m 472.54646,76.608921 -4.22916,0.583333 v -1.895832 h -2.91667 v 2.041665 l -4.37499,0.583333 V 64.358931 l 4.37499,0.4375 v 0.437499 h 2.47917 l 2.1875,-1.458332 3.93749,2.770831 -1.45833,1.458332 z m 6.85416,-8.749993 q -1.3125,5.395829 -4.81249,10.499991 l -2.33334,-0.729166 q 2.1875,-5.104162 2.91667,-8.895826 0.875,-4.229163 0.875,-9.624991 V 45.546447 l 4.52083,0.4375 v 0.437499 h 6.41666 l 2.1875,-1.312498 3.93749,2.624997 -1.3125,1.312499 v 10.062492 l -4.52083,0.583332 v -1.166665 h -2.62499 q 2.04166,9.333325 9.62499,16.916652 l -4.22916,3.208331 q -3.9375,-4.812496 -5.83333,-9.624992 -1.60417,-4.229163 -2.33333,-10.499991 h -1.3125 q -0.14584,5.541662 -1.16667,9.333325 z m 7.87499,-18.958317 h -6.70832 v 7.145827 h 6.70832 z m -25.95831,0 -0.875,-2.479165 h 7.58333 l 2.625,-1.604165 3.35416,2.770831 -1.3125,1.312499 z m -1.60416,4.812496 -0.875,-2.479165 h 10.93749 l 2.625,-1.749998 3.49999,2.916664 -1.45833,1.312499 z m 1.3125,4.374996 -0.875,-2.479164 h 8.16666 l 2.625,-1.749999 3.35416,2.916664 -1.3125,1.312499 z m 0.14583,4.374996 -0.875,-2.479164 h 8.16666 l 2.47917,-1.604165 3.35416,2.916664 -1.3125,1.166665 z m 7.14583,5.249996 h -2.91667 v 5.104162 h 2.91667 z"
       style="font-family:HGSSoeiPresenceEB;-inkscape-font-specification:HGSSoeiPresenceEB;fill:#f9f9f9"
       id="path20782" /><path
       d="m 516.58809,64.213098 q -1.16667,1.166666 -2.91667,1.166666 -1.75,0 -2.91666,-1.166666 -1.16667,-1.166666 -1.16667,-2.916664 0,-1.749999 1.16667,-2.916664 1.16666,-1.166666 2.91666,-1.166666 1.75,0 2.91667,1.166666 1.16666,1.166665 1.16666,2.916664 0,1.749998 -1.16666,2.916664 z"
       style="font-family:HGSSoeiPresenceEB;-inkscape-font-specification:HGSSoeiPresenceEB;fill:#f9f9f9"
       id="path20784" /><path
       d="m 549.83807,65.67143 v 6.708328 l -2.625,0.291666 q 1.89583,0.583333 6.41666,0.583333 h 14.72916 l -2.625,4.229163 h -12.83332 q -3.79167,0 -6.70833,-1.166666 -2.625,-1.020832 -4.375,-3.64583 l -5.24999,5.395829 -3.20833,-4.52083 5.54166,-2.624997 V 61.5881 h -4.66666 l -0.875,-2.479164 h 5.24999 l 2.1875,-1.604166 3.9375,2.916664 -1.45834,1.458333 v 8.166659 q 0.58334,1.020833 2.1875,1.895832 V 52.983941 l 4.375,0.437499 v 0.4375 h 3.64583 q -0.875,-1.312499 -4.66666,-4.229163 l 1.45833,-1.166666 h -4.66666 l -0.875,-2.479164 h 13.70832 l 2.33333,-1.312499 4.22916,2.916664 -6.70832,4.52083 1.45833,1.166665 -0.72917,0.583333 h 1.3125 l 2.04167,-1.312499 4.08332,2.624998 -1.45833,1.458332 V 70.19226 q 0,2.77083 -3.49999,2.77083 h -1.45834 q -0.29166,-1.604165 -2.33333,-2.041664 v -2.187499 h 1.75 q 1.16667,0 1.16667,-0.874999 V 65.67143 h -3.20833 v 5.687495 l -4.375,0.583333 V 65.67143 Z m 3.20833,-9.333325 h -3.20833 v 2.187498 h 3.20833 z m 7.58333,0 h -3.20833 v 2.187498 h 3.20833 z m 0,4.666662 h -3.20833 v 2.187498 h 3.20833 z m -7.58333,0 h -3.20833 v 2.187498 h 3.20833 z m -12.24999,-8.604159 q -2.33333,-3.499997 -5.83333,-5.687495 l 1.60417,-1.749999 q 4.66666,1.458332 7.72916,3.791664 z m 15.16665,-1.895832 1.45834,-2.041665 h -5.83333 z"
       style="font-family:HGSSoeiPresenceEB;-inkscape-font-specification:HGSSoeiPresenceEB;fill:#f9f9f9"
       id="path20786" /><path
       d="m 584.54635,76.608921 -4.22916,0.583333 v -1.895832 h -2.91666 v 2.041665 l -4.375,0.583333 V 64.358931 l 4.375,0.4375 v 0.437499 h 2.47916 l 2.1875,-1.458332 3.9375,2.770831 -1.45834,1.458332 z m 6.85416,-8.749993 q -1.31249,5.395829 -4.81249,10.499991 l -2.33333,-0.729166 q 2.1875,-5.104162 2.91666,-8.895826 0.875,-4.229163 0.875,-9.624991 V 45.546447 l 4.52083,0.4375 v 0.437499 h 6.41666 l 2.1875,-1.312498 3.9375,2.624997 -1.3125,1.312499 v 10.062492 l -4.52083,0.583332 v -1.166665 h -2.625 q 2.04167,9.333325 9.62499,16.916652 l -4.22916,3.208331 q -3.9375,-4.812496 -5.83333,-9.624992 -1.60416,-4.229163 -2.33333,-10.499991 h -1.3125 q -0.14583,5.541662 -1.16667,9.333325 z m 7.875,-18.958317 h -6.70833 v 7.145827 h 6.70833 z m -25.95831,0 -0.875,-2.479165 h 7.58332 l 2.625,-1.604165 3.35417,2.770831 -1.3125,1.312499 z m -1.60417,4.812496 -0.875,-2.479165 h 10.93749 l 2.625,-1.749998 3.5,2.916664 -1.45833,1.312499 z m 1.3125,4.374996 -0.875,-2.479164 h 8.16666 l 2.625,-1.749999 3.35416,2.916664 -1.3125,1.312499 z m 0.14583,4.374996 -0.875,-2.479164 h 8.16666 l 2.47917,-1.604165 3.35416,2.916664 -1.3125,1.166665 z m 7.14583,5.249996 h -2.91666 v 5.104162 h 2.91666 z"
       style="font-family:HGSSoeiPresenceEB;-inkscape-font-specification:HGSSoeiPresenceEB;fill:#f9f9f9"
       id="path20788" /><path
       d="m 628.58799,64.213098 q -1.16666,1.166666 -2.91666,1.166666 -1.75,0 -2.91666,-1.166666 -1.16667,-1.166666 -1.16667,-2.916664 0,-1.749999 1.16667,-2.916664 1.16666,-1.166666 2.91666,-1.166666 1.75,0 2.91666,1.166666 1.16667,1.166665 1.16667,2.916664 0,1.749998 -1.16667,2.916664 z"
       style="font-family:HGSSoeiPresenceEB;-inkscape-font-specification:HGSSoeiPresenceEB;fill:#f9f9f9"
       id="path20790" /><path
       d="m 672.9213,54.004773 q -1.45833,-2.624997 -4.81249,-5.395828 l 1.74999,-1.458333 q 3.9375,1.604166 6.27083,4.229164 z m 3.64583,-3.062497 q -2.625,-2.624998 -5.54166,-4.08333 l 1.60417,-1.749998 q 3.35416,0.874999 6.41666,3.354163 z M 652.94215,46.56728 q 3.5,1.020832 5.54166,2.333331 -1.02083,2.479165 -1.16666,5.541662 l -0.29167,5.395829 q 5.54166,-1.604166 8.89583,-3.062498 1.75,-0.729166 2.33333,-1.312499 0.4375,-0.729166 0,-1.895831 l 2.04166,-1.020833 q 1.89584,1.895832 4.22917,5.104163 -7.875,3.791663 -17.49999,5.395828 0,1.895832 0,3.937497 0,2.479164 0.72917,3.062497 0.58333,0.4375 3.49999,0.729166 6.5625,0.583333 13.27083,-1.312499 1.45833,2.479165 2.33333,4.52083 -11.37499,2.041665 -19.24999,0.874999 -3.06249,-0.437499 -4.22916,-2.333331 -0.875,-1.458332 -0.72916,-6.124995 0.4375,-8.604159 0.29166,-12.104156 -0.14583,-2.479165 -0.29166,-3.499997 -0.29167,-1.166666 -1.16667,-2.916664 z"
       style="font-family:HGSSoeiPresenceEB;-inkscape-font-specification:HGSSoeiPresenceEB;fill:#f9f9f9"
       id="path20792" /><path
       d="m 710.40042,53.85894 q -1.3125,-2.333331 -4.66667,-5.395829 l 1.45834,-1.166665 q 3.79166,1.604165 5.97916,4.08333 z m 3.20833,-2.916664 q -1.45833,-2.041665 -5.39583,-4.08333 l 1.16666,-1.312499 q 3.9375,0.729166 6.5625,2.916664 z m -15.74999,3.937497 Q 694.5046,51.817275 689.6921,49.77561 l 1.60417,-1.604165 q 5.83333,0.291666 9.91665,2.333331 z m -4.22916,8.166659 q -3.0625,-3.20833 -7.875,-5.395828 l 1.3125,-1.749999 q 4.95833,0 9.91666,2.770831 z m 7.72916,8.020827 q -5.39583,3.937496 -10.20833,5.541662 -1.89583,-2.041665 -3.64583,-5.104163 l 1.75,-1.458332 q 1.3125,0.875 1.89583,1.020833 0.58334,0.145833 1.60417,-0.4375 5.39583,-2.624998 9.62499,-6.124995 6.125,-4.958329 11.22916,-12.833322 l 1.75,2.041665 q -2.1875,5.249995 -5.54167,9.479158 -3.35416,4.08333 -8.45832,7.874994 z"
       style="font-family:HGSSoeiPresenceEB;-inkscape-font-specification:HGSSoeiPresenceEB;fill:#f9f9f9"
       id="path20794" /><path
       d="m 732.71291,45.400614 q 6.27083,1.458332 9.33332,4.812496 l -2.62499,2.479164 q 2.77083,-0.437499 5.39583,-1.166665 l 2.91666,3.64583 -3.20833,2.624998 q -0.72917,0.583333 -2.47917,2.479164 7,2.479165 11.08333,7.145828 -1.89583,1.895831 -4.08333,3.354163 -3.35416,-5.249995 -9.04166,-8.749992 l -0.4375,0.291666 1.16667,1.458332 q -0.72917,2.041665 -0.72917,4.812496 l 0.14583,8.458326 -4.66666,-0.437499 q 0.4375,-6.708328 0.4375,-9.041659 v -2.770831 q -5.39583,4.08333 -12.24999,5.833328 l -1.45833,-1.749998 q 10.35416,-4.812496 17.35415,-12.68749 -2.47916,0.4375 -5.25,1.020833 -2.33333,0.4375 -4.95832,1.458332 -2.1875,-2.333331 -3.5,-4.374996 l 2.04166,-1.458332 q 1.3125,0.874999 2.625,1.020832 1.60417,0.145833 7,-0.729166 -1.75,-2.916664 -6.70833,-6.124995 z"
       style="font-family:HGSSoeiPresenceEB;-inkscape-font-specification:HGSSoeiPresenceEB;fill:#f9f9f9"
       id="path20796" /><path
       d="m 768.00456,50.796443 q 2.1875,0.145833 8.02082,-0.875 3.20833,-0.437499 7.4375,-1.312498 l 2.47916,3.791663 q -1.89583,2.333331 -2.47916,3.208331 -2.33333,3.499997 -4.8125,6.708327 8.02083,3.499997 12.54166,10.208325 -2.1875,2.187498 -4.22917,3.20833 -4.08333,-7.437493 -10.06249,-11.083323 -5.97916,6.85416 -16.18748,11.083323 l -1.89583,-1.895831 q 9.47915,-5.249996 15.45832,-12.979156 2.33333,-2.916664 5.10416,-7.72916 -5.97916,0.583333 -12.97916,2.333331 -1.60416,-2.041665 -2.625,-4.229163 l 1.75,-1.458332 q 1.02084,0.874999 2.47917,1.020833 z"
       style="font-family:HGSSoeiPresenceEB;-inkscape-font-specification:HGSSoeiPresenceEB;fill:#f9f9f9"
       id="path20798" /><path
       d="m 828.81699,50.358943 -1.16667,1.166666 h -10.35416 q 6.70833,3.499997 10.35416,7.583327 l -4.375,3.20833 Q 819.92116,57.50477 813.942,52.983941 l 2.33333,-1.458332 h -8.74999 l 3.0625,2.479164 q -2.04167,2.624998 -5.10417,4.958329 -3.64583,2.916665 -6.99999,3.937497 l -2.33333,-1.749998 q 6.70833,-4.08333 9.91666,-9.624992 h -9.625 l -0.87499,-2.479165 h 14.29165 v -4.958329 l 4.66666,0.291666 v 4.666663 h 7.58333 l 2.625,-1.749998 z m -19.10415,17.354152 q -2.47917,-2.916664 -4.95833,-7.874993 l 2.33333,-1.749999 q 2.04166,3.354164 5.24999,6.416661 2.04167,-3.20833 3.64583,-7.72916 l 4.52083,2.624998 q -2.18749,4.958329 -4.66666,8.020827 4.375,3.937496 13.70832,6.85416 l -3.35416,4.666663 q -8.60416,-2.770831 -13.12499,-7.72916 -4.95833,5.104162 -14.58332,7.437494 l -2.33333,-1.895832 q 8.60416,-3.64583 13.56249,-9.041659 z"
       style="font-family:HGSSoeiPresenceEB;-inkscape-font-specification:HGSSoeiPresenceEB;fill:#f9f9f9"
       id="path20800" /><path
       d="m 836.10863,44.817281 q 4.37499,1.166666 7.43749,3.062498 l -0.875,1.020832 h 8.3125 v -4.666663 l 4.37499,0.291667 v 4.374996 h 4.95833 l 2.625,-1.749999 3.9375,2.916665 -1.3125,1.312499 h -10.64583 l -4.08333,4.666662 6.85416,-0.291666 q -0.58333,-0.729166 -2.47916,-2.916664 l 1.89583,-1.166666 q 5.25,2.770831 8.31249,6.270828 l -4.22916,3.208331 -2.04166,-3.354164 -15.02083,3.062497 -1.16666,-4.666663 5.10416,-0.145833 1.45833,-4.666662 h -7.43749 l -0.4375,-1.166666 -1.45833,1.749998 q -2.1875,-3.354163 -5.54166,-5.541662 z m 13.56249,16.33332 v 4.958329 q 0,3.64583 -1.75,6.708327 -1.89583,3.208331 -5.6875,5.395829 l -2.04166,-1.166666 q 2.91666,-2.479164 3.93749,-5.249995 1.02084,-2.624998 1.02084,-6.708328 v -4.229163 z m 1.3125,-0.145834 4.37499,0.291667 v 14.437487 l -4.37499,0.583333 z m 9.91665,0.145834 v 11.37499 q 0,0.874999 1.02084,0.874999 h 0.4375 q 0.58333,-0.145833 1.02083,-1.895832 l 0.72916,-3.062497 1.89584,0.874999 v 2.916664 q 0,1.166666 1.16666,1.166666 v 1.166666 q 0,2.916664 -3.35416,2.916664 h -3.9375 q -2.91666,-0.4375 -3.35416,-3.062497 V 60.858934 Z m -23.33331,-1.604166 q -1.89583,-3.20833 -5.39583,-5.541662 l 1.3125,-1.749998 q 4.8125,1.166665 7.29166,3.062497 z m -2.625,18.812484 q 0,-3.354164 -0.58333,-5.833328 -0.58333,-2.770831 -2.04167,-5.979162 l 2.1875,-0.874999 1.16667,1.166666 5.54166,-11.229157 1.75,1.749998 -4.375,14.729154 q 0.875,2.479165 1.3125,4.52083 z"
       style="font-family:HGSSoeiPresenceEB;-inkscape-font-specification:HGSSoeiPresenceEB;fill:#f9f9f9"
       id="path20802" /><path
       d="m 884.6711,57.213104 v -4.52083 h -13.56249 l -0.875,-2.479164 h 14.43749 v -5.979162 l 4.66666,0.291667 v 5.687495 h 7.43749 l 2.625,-1.749999 4.08333,3.062498 -1.16666,1.166665 h -12.97916 v 4.52083 h 1.75 l 2.1875,-1.895832 3.79166,2.770831 q -3.64583,7.145827 -6.41666,10.354158 3.9375,2.624998 13.85415,4.812496 l -3.64583,4.666663 q -6.70832,-1.312499 -13.56248,-6.124995 -4.8125,4.08333 -16.04166,6.562494 l -1.75,-2.187498 q 10.9375,-3.64583 14.72916,-8.020826 -2.1875,-2.770831 -3.79166,-8.458327 h -5.97917 l -0.875,-2.479164 z m 2.47916,7.874993 q 2.04167,-2.479164 3.20833,-5.395829 h -6.41666 q 0.875,2.479165 3.20833,5.395829 z"
       style="font-family:HGSSoeiPresenceEB;-inkscape-font-specification:HGSSoeiPresenceEB;fill:#f9f9f9"
       id="path20804" /><path
       d="m 927.40024,55.754772 q -0.72917,-2.770831 -2.91666,-5.249996 l 1.74999,-0.874999 q 2.77084,1.604165 4.8125,4.958329 z m 1.89583,-6.562495 q -4.37499,0.291667 -9.77082,0.291667 l -1.16667,-2.187498 q 4.22916,-0.4375 8.16666,-1.166666 4.66666,-0.874999 8.02083,-2.333331 l 4.37499,3.64583 q -3.49999,1.312499 -9.62499,1.749998 z m -5.83333,6.562495 q -1.02083,-2.333332 -3.35416,-5.249996 l 1.75,-0.874999 q 3.0625,2.041665 4.81249,4.812496 z m 3.0625,11.229157 q 0.72917,1.166666 2.1875,2.041665 1.02083,-1.020833 1.75,-2.041665 z m -0.58333,4.520829 q -1.16667,-0.874999 -2.33333,-2.916664 -2.1875,2.770831 -5.97917,5.249996 l -1.16666,-0.875 v 1.166666 q 0,3.937497 -3.20833,3.937497 h -2.91667 q -0.72916,-1.604166 -2.47916,-2.187498 v -2.187498 h 3.0625 q 1.16666,0 1.16666,-0.875 v -8.020826 l -3.64583,2.333331 -1.60416,-5.249995 5.24999,-1.312499 v -5.979162 h -4.37499 l -0.875,-2.479164 h 5.24999 v -7.583327 l 4.375,0.291666 v 7.291661 l 2.04166,-1.749999 3.35417,2.916664 -1.16667,1.312499 h -4.22916 v 4.812496 l 2.47916,-1.020832 -1.02083,-2.479165 h 12.68749 l 3.64583,-6.854161 4.375,2.041665 -5.39583,4.812496 h 0.72916 l 2.1875,-1.604165 3.35417,2.770831 -1.60417,1.312499 h -9.62499 l -0.72917,2.187498 h 7.4375 l 2.47916,-1.895832 4.22916,2.770831 -1.45833,1.604165 h -5.97916 l 3.35416,2.624998 q -2.18749,3.062497 -4.95832,5.833328 1.02083,0.729166 3.35416,1.458332 1.89583,0.4375 5.97916,0.729167 l -3.64583,4.374996 q -6.41666,-1.312499 -9.18749,-3.791664 -1.45833,1.020833 -3.9375,2.041665 -3.35416,1.458332 -7.14583,1.604166 l -1.60416,-2.041665 q 3.20833,-0.875 5.68749,-2.041665 2.04167,-0.875 3.79167,-2.333332 z m -3.35417,-10.93749 0.58334,-2.187498 h -2.77083 l 0.72916,1.458332 -1.16666,0.729166 z m 3.20833,3.937496 h 5.6875 l 1.45833,-1.458332 h -6.41666 z m -8.60415,-2.187498 -0.72917,0.4375 v 8.312493 q 1.60416,-1.312499 2.91666,-3.499997 1.75,-2.770831 2.33333,-4.52083 h -4.22916 z"
       style="font-family:HGSSoeiPresenceEB;-inkscape-font-specification:HGSSoeiPresenceEB;fill:#f9f9f9"
       id="path20806" /></g></g><g
   inkscape:groupmode="layer"
   id="layer2"
   inkscape:label="ロゴ本体"
   transform="translate(-156.07,-143.69392)"
   style="display:inline"
   sodipodi:insensitive="true"><g
     id="g37">
	
		<linearGradient
   id="SVGID_1_"
   gradientUnits="userSpaceOnUse"
   x1="288.1394"
   y1="232.2861"
   x2="356.8183"
   y2="113.3308"
   gradientTransform="matrix(1.8,0,0,1.8,-262.5111,-61.3447)">
		<stop
   offset="0.3483"
   style="stop-color:#E3C800"
   id="stop4" />
		<stop
   offset="0.5941"
   style="stop-color:#F1D400"
   id="stop6" />
		<stop
   offset="0.6629"
   style="stop-color:#F6D800"
   id="stop8" />
		<stop
   offset="0.6698"
   style="stop-color:#F6DA0B"
   id="stop10" />
		<stop
   offset="0.7085"
   style="stop-color:#F8E243"
   id="stop12" />
		<stop
   offset="0.7484"
   style="stop-color:#FAEA75"
   id="stop14" />
		<stop
   offset="0.7886"
   style="stop-color:#FCF0A0"
   id="stop16" />
		<stop
   offset="0.8291"
   style="stop-color:#FDF6C2"
   id="stop18" />
		<stop
   offset="0.8701"
   style="stop-color:#FEFADD"
   id="stop20" />
		<stop
   offset="0.9118"
   style="stop-color:#FEFDF0"
   id="stop22" />
		<stop
   offset="0.9545"
   style="stop-color:#FFFEFB"
   id="stop24" />
		<stop
   offset="1"
   style="stop-color:#FFFFFF"
   id="stop26" />
	</linearGradient>
	<path
   class="st0"
   d="m 443.36,293.84 c 0,-77.31 -62.71,-139.98 -140.05,-139.98 -77.34,0 -140.04,62.67 -140.04,139.98 h 45.18 c 0,0 -11.53,-119.66 93.88,-119.66 105.42,0 95.86,119.74 95.86,119.74 z"
   id="path29"
   style="fill:url(#linearGradient7723)" />
	<g
   id="g35">
		<path
   class="st1"
   d="m 272.05,255.71 v -4.89 h 16.31 v 32.69 c -6.32,2.29 -11.38,3.44 -15.19,3.44 -7.24,0 -12.96,-3.58 -17.16,-10.74 -4.2,-7.16 -6.3,-16.9 -6.3,-29.23 0,-26.62 7.98,-39.93 23.95,-39.93 4.68,0 9.58,1.12 14.7,3.35 v 13.71 h -4.02 v -0.98 c 0,-7.29 -3.36,-10.93 -10.09,-10.93 -4.47,0 -7.64,2.68 -9.53,8.05 -1.89,5.37 -2.84,14.29 -2.84,26.78 0,23.19 4.06,34.78 12.17,34.78 1.07,0 2.16,-0.32 3.26,-0.98 V 266.07 L 277.13,260 c 0.01,-2.86 -1.69,-4.29 -5.08,-4.29 z"
   id="path31" />
		<path
   class="st1"
   d="m 323.43,248.43 c 7.36,0 11.05,5.62 11.05,16.85 0,9.92 -2.5,14.88 -7.52,14.88 -2.18,0 -3.5,-0.6 -3.96,-1.79 -0.46,-1.19 -0.7,-4.05 -0.7,-8.58 v -21.37 h 1.13 z m 6.47,36.63 c 11.16,0 16.75,-6.37 16.75,-19.13 0,-10.43 -4.75,-17.11 -14.24,-20.07 7.98,-4.46 11.98,-11.08 11.98,-19.83 0,-11.49 -4.97,-17.24 -14.91,-17.24 h -23.5 v 4.89 c 3.42,0 5.13,1.42 5.13,4.24 l 0.14,6.12 v 45.75 l -0.14,6.08 c 0,2.86 -1.71,4.29 -5.13,4.29 v 4.89 h 23.92 z m -7.6,-71.37 h 0.67 c 6.92,0 10.37,4.82 10.37,14.46 0,10.27 -3.31,15.4 -9.92,15.4 h -1.12 z"
   id="path33" />
	</g>
</g></g></svg>
