<svg xmlns="http://www.w3.org/2000/svg" pointer-events="none" class="leaflet-zoom-animated" width="1452" height="844" viewBox="-121 -70 1452 844" style="transform: translate3d(-121px, -70px, 0px);"><g><path class="leaflet-interactive" stroke="#201920" stroke-opacity="1" stroke-width="2" stroke-linecap="round" stroke-linejoin="round" fill="none" d="M362 309L362 305L361 306L359 302L363 300L362 297L365 294L366 295L369 292L371 292L371 290L374 291L376 289L377 292L383 292L388 284L393 285L396 282L397 283L397 281L403 279L406 276L413 274L413 267L416 264L415 263L418 262L418 258L415 251L415 245L411 243L411 241L424 237L432 239L433 238L430 235L430 233L436 215L443 218L452 219L456 217L458 215L456 204L460 200L462 201L465 199L467 195L466 194L468 192L474 192L476 199L481 201L483 205L489 205L490 208L493 207L493 209L496 211L498 218L500 218L501 221L501 224L499 226L500 229L498 232L499 239L500 238L503 240L504 239L510 241L520 241L531 249L536 249L535 252L537 252L538 257L544 266L550 265L569 268L585 268L592 273L593 272L598 275L608 276L609 278L613 279L616 276L633 269L643 270L654 267L662 259L666 258L669 255L665 249L666 244L669 240L682 244L686 242L691 236L698 236L704 231L703 230L708 225L712 225L713 222L717 223L719 221L724 220L726 222L733 221L732 216L722 206L717 205L713 209L704 207L701 210L698 207L698 205L700 203L707 183L715 187L722 182L728 180L729 177L727 177L727 175L732 168L734 160L737 157L739 157L740 154L739 149L737 147L734 148L734 146L742 138L743 139L759 135L763 135L767 138L768 137L770 140L773 141L779 141L779 144L781 144L782 148L785 150L784 153L786 154L785 155L788 160L787 161L789 162L789 168L792 171L793 178L795 178L794 183L797 187L804 186L804 188L810 188L810 190L812 190L816 195L820 195L818 198L821 202L819 204L823 210L834 209L839 204L841 205L848 201L855 201L852 202L851 207L853 209L847 215L848 216L845 223L846 226L839 239L836 240L829 237L827 239L828 240L822 242L825 252L825 258L823 264L818 266L819 269L816 266L816 264L813 263L812 268L810 270L809 269L806 274L798 274L801 279L799 281L792 280L790 278L791 277L789 277L790 276L787 277L782 286L775 289L769 294M402 376L399 373L399 371L402 368L404 372L406 370L406 366L401 360L401 356L404 353L398 349L396 341L391 342L384 339L384 337L381 338L379 335L380 332L377 329L375 329L375 327L367 325L369 323L371 324M628 466L626 466L627 463L625 463L627 459L625 457L620 458L616 454L614 454L612 458L607 458L604 461L602 459L600 459L597 462L594 459L592 459L591 462L586 461L586 473L582 472L582 468L574 470L574 468L572 468L571 465L567 465L567 459L569 457L564 455L564 451L562 449L564 447L558 447L554 449L553 448L555 446L553 444L555 440L554 439L562 431L561 430L563 426L563 418L560 415L560 417L558 415L558 411L554 409L554 407L552 409L553 410L551 410L552 413L549 415L542 410L538 410L535 411L535 413L532 415L527 416L521 422L517 423L509 423L509 417L505 417L504 412L499 413L490 410L486 414L484 419L482 417L483 412L481 411L479 413L474 414L470 414L465 411L463 413L461 411L461 413L457 409L454 410L453 406L450 407L445 402L445 400L441 402L436 397L434 397L434 395L433 396L432 394L430 394L429 391L424 390L422 394L408 384L405 385L402 382L402 376M637 470L632 469L628 466M640 599L639 590M648 515L651 519L652 524M656 548L654 556M668 620L676 617M698 589L703 583M722 559L725 550M726 517L726 526M734 492L729 500M749 468L743 476M754 453L756 443"/><path class="leaflet-interactive" stroke="#201920" stroke-opacity="1" stroke-width="2" stroke-linecap="butt" stroke-linejoin="round" stroke-dasharray="4,4" stroke-dashoffset="4" fill="none" d="M371 324L373 322L371 320L371 312L369 310L366 309L364 311L362 309"/><path class="leaflet-interactive" stroke="gray" stroke-opacity="1" stroke-width="1" stroke-linecap="round" stroke-linejoin="round" stroke-dasharray="8,4,4,4" fill="none" d="M682 464L682 464M687 461L685 461L684 464L689 464L689 462L687 461"/><path class="leaflet-interactive" stroke="#4190da" stroke-opacity="1" stroke-width="1" stroke-linecap="round" stroke-linejoin="round" fill="none" d="M686 463L686 461L684 462L683 459L682 464L680 466L679 465L679 467L676 466L674 468L671 467L669 469L659 471L655 474L655 476L658 479L656 481L652 481L650 475L652 471L650 469L648 471L646 471L646 469L637 470M656 473L656 473M656 473L656 475L656 473M682 464L682 464M686 463L686 463M686 463L686 463M686 463L686 463M733 424L730 425L732 425L733 428L730 429L731 432L729 434L733 434L731 436L728 435L728 437L726 437L727 438L726 439L726 437L724 441L723 440L724 441L722 444L719 443L719 445L713 452L709 452L705 458L699 458L697 460L695 458L692 461L690 459L690 461L689 462L689 460L687 462L689 462L686 463M733 424L733 424M748 402L746 406L747 409L744 412L743 411L742 414L741 413L733 426L732 425L734 423L733 424M746 328L744 330L740 330L741 333L740 332L739 335L736 336L736 334L736 336L727 347L737 355L741 365L741 369L746 373L745 374L749 376L749 378L744 376L742 378L744 380M744 380L750 385L749 386L751 388L747 386L742 389L745 390L749 395L751 395L748 397L750 398L749 402M746 328L746 328M746 328L746 328M752 302L749 306L745 308L742 307L747 304L747 302L746 303L743 300L745 300L745 298L752 291L751 288L750 289L748 287L743 286L738 291L738 293L731 296L728 299L728 301L722 305L722 307L719 306L719 304L717 304L715 308L715 312L717 312L717 314L724 315L727 318L728 317L728 319L725 320L725 322L728 325L732 325L732 323L736 320L735 319L739 318L745 320L745 322L751 321L755 323L752 328L746 328M746 328L746 328M748 402L748 402M748 402L748 402M748 402L748 402M749 402L748 402M749 402L749 402M751 394L751 394M751 394L751 394M751 394L751 394M752 394L751 394M751 394L749 392L751 392L752 394M752 394L752 394M752 392L753 391L752 392M752 392L752 392M752 302L752 302M769 294L767 298L761 298L752 302M753 387L753 387M753 387L753 387M755 386L755 386M644 469L644 469M646 474L646 474M649 484L649 484M649 588L650 586L653 587L652 586L649 588M650 499L642 495L642 489L647 484L659 481L662 485L659 488L657 494L651 497L650 499M653 584L654 583L653 584M656 477L656 477M657 473L657 473M657 584L657 584M657 582L658 581L657 582M658 474L658 472L658 474M658 480L658 480M658 582L658 582M658 475L658 475M663 518L663 518M665 508L666 507L665 508M665 578L665 578M665 513L665 513M665 572L665 572M666 586L666 586M666 584L666 584M666 513L666 513M666 512L666 512M666 583L667 584L666 583M666 515L666 515M666 577L667 578L666 577M666 512L666 512M667 585L667 585M667 512L667 512M667 515L668 514L667 515M667 513L668 512L667 513M667 516L667 516M669 582L669 582M669 514L669 514M669 616L669 616M671 576L671 576M671 576L671 576M671 616L671 616M671 510L671 510M671 519L671 519M671 508L672 509L671 508M671 575L672 576L671 575M671 615L671 615M672 575L672 575M672 602L672 602M672 509L672 509M672 510L672 510M673 514L672 515L673 514M673 469L673 469M673 601L673 601M673 517L674 516L673 517M673 513L674 512L673 513M673 570L673 570M673 602L674 601L673 602M673 600L674 601L673 600M674 576L674 576M674 599L674 599M674 606L674 606M674 469L674 469M674 602L674 602M674 604L674 604M674 513L675 514L674 513M674 606L674 606M675 468L674 469L675 468M675 514L675 514M675 511L675 511M676 469L675 468L676 469M676 575L676 575M676 469L676 469M676 510L676 510M676 584L676 584M676 570L676 570M676 570L676 570M677 607L677 607M677 579L677 579M677 487L677 487M677 569L677 569M677 467L677 467M678 466L678 466M678 467L678 467M679 466L679 466M679 596L679 596M679 582L679 582M679 582L680 581L679 582M682 464L682 464M682 564L682 564M682 591L682 591M682 575L683 574L682 575M683 573L683 573M683 466L683 466M683 520L683 520M683 466L683 466M683 466L683 466M683 466L683 466M683 586L684 585L683 586M684 588L684 588M684 462L684 462M684 465L684 465M684 490L684 490M684 464L686 464L684 464M684 566L684 566M684 521L684 521M684 519L685 520L684 519M684 583L685 582L684 583M684 586L689 583L690 584L688 586L684 586M685 575L684 576L685 575M685 518L685 518M685 576L685 576M685 575L686 576L685 575M685 522L685 522M686 566L686 566M686 559L686 559M686 582L686 582M686 517L686 517M686 464L686 464M687 466L687 466M687 571L687 571M687 463L687 463M687 466L687 466M687 576L687 576M687 516L687 516M687 465L687 465M687 521L687 521M687 564L687 564M687 568L687 568M687 464L687 464M687 520L688 521L687 520M688 569L688 569M688 555L688 555M688 461L688 461M688 558L688 558M688 463L688 463M688 565L688 565M688 560L688 560M688 554L688 554M689 516L689 516M689 567L689 567M689 520L689 520M689 568L689 568M689 559L689 559M689 560L689 560M689 567L689 567M689 582L690 581L689 582M690 567L690 567M690 567L690 567M690 555L690 555M690 567L690 567M690 576L691 575L690 576M690 520L690 520M690 567L691 566L690 567M690 555L691 554L690 555M690 462L690 462M691 586L691 586M691 581L691 581M691 563L691 563M691 554L691 554M691 558L692 557L691 558M691 515L691 515M691 568L691 568M692 581L692 581M692 557L692 557M692 518L692 518M692 560L692 560M692 589L692 589M692 583L692 583M693 559L693 559M693 516L693 516M693 587L693 587M693 557L693 557M695 579L696 580L695 579M695 578L696 579L695 578M696 565L696 565M696 534L696 534M697 571L697 571M697 567L697 567M697 579L698 578L697 579M699 562L699 562M699 562L699 562M699 562L699 562M699 563L700 562L699 563M700 562L700 562M700 569L701 568L700 569M700 559L700 559M701 474L701 474M701 473L702 474L701 473M701 572L701 572M702 566L702 566M703 570L703 570M704 575L704 575M705 568L705 568M705 573L705 573M705 568L705 568M705 563L707 563L705 563M706 568L706 568M707 562L707 562M707 514L707 514M707 554L708 555L707 554M707 477L707 477M707 574L707 574M708 476L708 478L708 476M708 562L708 562M711 453L709 453L711 453M711 561L711 561M711 560L711 560M712 564L712 564M712 561L713 560L712 561M712 557L712 557M712 566L712 566M713 558L713 558M715 561L715 561M715 558L715 558M715 524L716 523L715 524M716 560L716 560M718 444L718 444M719 444L718 443L719 444M719 445L720 444L719 445M721 444L720 445L721 444M723 305L723 305M724 304L724 304M724 304L725 305L724 304M729 455L729 455M729 438L730 437L729 438M730 454L730 454M730 451L730 451M730 451L730 451M730 434L730 434M731 429L731 429M731 452L730 453L731 452M731 433L731 433M731 434L731 434M731 425L732 424L731 425M731 436L731 436M731 436L731 436M732 425L732 425M733 434L733 434M733 429L733 429M733 431L733 431M734 453L734 453M734 428L733 429L734 428M734 426L734 426M735 426L735 426M735 425L735 425M735 423L735 423M735 339L735 339M736 422L736 422M736 463L736 463M736 422L736 422M737 319L737 319M738 427L738 427M739 317L738 316L739 317M739 466L735 459L734 452L740 442L745 437L747 437L749 439L749 444L745 456L741 461L741 467L739 466M739 316L739 316M739 317L739 317M740 315L740 315M740 290L740 290M740 313L740 313M741 312L741 312M741 313L741 313M742 332L742 332M742 413L742 413M742 417L742 417M742 413L743 412L742 413M743 413L744 412L743 413M745 377L750 380L749 381L743 377L745 377M745 370L745 370M745 460L745 460M746 465L746 465M747 466L747 466M747 380L747 380M747 402L747 402M748 406L748 406M748 382L746 381L748 382M748 381L750 382L748 381M748 393L748 393M748 405L748 405M748 406L749 405L748 406M749 408L749 408M749 393L748 394L749 393M749 382L749 382M749 408L749 408M749 435L749 435M749 441L749 441M749 393L749 393M749 383L750 382L749 383M749 391L749 391M750 402L750 402M750 396L750 396M750 394L750 394M750 392L750 392M750 388L750 388M750 394L750 394M750 394L750 394M751 394L751 394M751 394L751 394M751 392L751 392M751 391L752 392L751 391M751 392L751 392M751 399L751 399M751 397L750 396L751 397M751 397L751 397M751 394L752 395L751 394M752 395L752 395M752 395L752 395M752 397L751 396L752 397M752 395L753 394L753 396L752 395M753 304L753 304M753 394L753 394M753 390L753 390M754 390L754 390M754 304L754 304M754 303L754 303M754 388L754 388M755 304L756 303L755 304M756 393L756 393M756 306L755 305L756 306M756 387L756 387M756 387L756 387M758 300L757 301L758 300M758 301L758 301M759 306L759 306M760 433L762 433L760 433M762 432L762 432M763 431L764 432L763 431M763 434L763 434M763 433L763 433M763 434L763 434M763 298L763 298M770 431L769 432L770 431"/><path class="leaflet-interactive" stroke="#747569" stroke-opacity="0.6" stroke-width="1" stroke-linecap="round" stroke-linejoin="round" fill="none" d="M490 335L481 332L471 332L463 334L460 339L452 339L445 343L436 342L435 339L431 339L431 341L429 341L427 344L415 342L415 344L413 346L412 345L411 350L409 352L408 351L404 353M554 370L552 370L552 372L549 375L547 375L546 378L543 376L542 379L540 377L537 378L535 376L536 373L535 374L533 372L535 372L533 372L530 369L524 371L519 370L517 368L510 368L505 365L499 365L495 363L489 355L491 355L491 347L489 347L488 344L491 338L487 336L490 335M512 306L505 307L503 309L497 309L496 311L493 312L494 314L496 314L496 319L498 319L503 326L501 326L498 329L498 331L501 332L499 336L493 334L491 336L490 335M587 360L586 361L585 359L583 359L579 355L579 353L580 352L589 355L589 353L591 353L588 350L588 348L592 344L591 343L595 341L594 338L596 338L597 336L595 330L592 327L594 325L588 319L587 320L583 318L574 311L574 313L572 313L564 305L559 306L557 308L552 304L548 304L549 309L546 312L546 314L544 313L542 315L538 312L529 313L527 308L523 309L523 307L518 307L517 304L512 306M544 266L540 269L542 272L540 276L535 278L532 277L524 284L522 288L516 289L514 299L511 303L512 306M607 322L600 318L600 312L604 310L607 305L605 303L606 302L603 301L597 305L593 303L587 305L589 307L587 309L580 306L579 302L569 297L575 289L574 286L566 286L566 288L565 287L562 289L562 287L559 289L559 286L556 284L554 280L555 278L550 265M566 401L564 387L561 382L564 381L560 377L558 371L554 370M587 360L586 365L582 363L583 368L577 370L575 368L574 369L572 365L571 368L564 365L560 355L556 354L554 355L554 357L552 357L552 359L555 362L552 365L553 366L551 366L554 370M558 411L558 409L562 411L562 403L564 405L564 401L566 401M615 415L614 412L610 414L608 412L608 406L604 406L604 409L600 411L601 414L596 419L597 426L594 429L594 427L587 430L587 428L585 428L585 424L579 416L580 415L578 413L576 415L573 412L573 407L570 405L568 407L568 411L566 409L566 401M617 366L616 369L610 369L607 366L608 363L606 359L599 358L596 353L590 357L593 360L588 365L587 360M634 318L631 315L625 313L629 306L627 302L623 303L623 305L622 304L620 308L620 316L618 319L607 322M607 322L609 322L616 329L615 330L617 334L617 339L619 339L619 341L621 341L624 344L624 340L629 337L629 335L625 333L625 327L627 325L631 325M615 415L615 417L611 419L607 419L604 417L602 421L603 426L609 424L610 425L607 434L610 437L612 437L609 442M609 442L609 444L613 444L615 448L620 447L622 449L621 453L620 452L617 455M649 430L648 433L645 432L644 433L646 433L646 435L643 434L642 437L638 435L639 436L635 438L632 437L631 434L621 442L614 439L610 443L609 442M624 408L622 406L618 408L618 410L619 409L623 411L624 413L622 415L615 415M631 325L631 327L638 331L639 330L642 333L642 342L640 344L635 343L635 347L625 345L626 348L624 350L627 353L625 353L626 360L620 360L619 363L621 364L618 367L617 366M641 373L635 373L634 371L632 371L633 370L631 371L629 369L630 368L623 369L621 367L618 368L617 366M647 408L646 411L644 411L640 403L636 403L634 401L632 401L632 405L629 404L627 408L625 408L625 406L624 408M624 408L623 404L619 404L619 402L615 398L619 394L617 392L621 390L623 392L626 391L626 393L629 394L632 391L632 387L637 386L637 382L641 379L639 375L641 373M631 325L631 321L634 318M662 302L662 300L659 303L656 303L654 301L655 302L653 304L652 303L653 304L646 311L646 316L644 316L642 320L634 318M641 373L650 378M650 378L655 383L655 385L649 389L640 389L640 391L642 392L640 396L642 396L645 399L644 400L646 399L647 402M647 402L647 408M685 403L683 403L682 396L678 399L677 396L672 399L668 395L664 395L662 393L658 393L658 397L651 396L651 398L650 397L647 402M649 430L649 428L647 428L649 420L644 421L644 419L646 419L645 418L649 416L647 408M669 442L668 441L665 443L665 439L661 439L665 432L663 432L662 427L658 427L655 431L653 429L651 431L649 430M661 363L659 365L657 363L649 363L651 367L652 366L655 369L651 369L649 371L650 378M651 470L651 471M651 470L655 466L656 467L656 465L659 464L659 462L662 459L664 459L664 453L670 445L669 442M652 482L653 482M654 482L656 481M656 350L655 347L658 340L656 326L660 320L657 317L657 315L660 312L661 307L663 305L662 302M656 350L661 363M656 350L666 348L669 345L670 346L670 344L676 344L682 340L683 333M657 481L658 480M696 381L694 379L691 380L690 377L685 378L683 374L684 373L682 371L680 373L678 371L671 372L667 370L661 363M661 364L661 364M686 288L686 290L676 292L676 294L673 292L668 300L665 299L665 301L662 302M669 442L671 438L675 438L675 440L677 440L678 437L676 437L678 435L682 437L685 435M697 335L694 334L693 336L683 333M683 333L681 329L683 329L683 327L684 328L683 325L686 322L686 318L684 314L682 314L682 310L684 308L683 306L688 305L690 301L689 298L685 296L685 294L686 295L686 293L689 292L686 288M703 396L701 397L697 395L697 397L695 397L692 400L688 400L685 403M685 435L685 431L687 429L685 429L686 426L684 424L684 419L682 417L682 415L687 410L687 406L685 403M685 435L685 437L691 437L691 439L689 439L687 443L689 444L696 441L700 443L699 442L701 440M727 282L720 281L720 273L719 274L717 272L718 271L716 267L710 269L706 275L705 274L702 277L700 275L696 277L696 279L692 279L693 275L689 273L687 279L684 280L686 288M703 350L703 352L706 353L707 356L704 359L700 355L698 357L699 360L697 360L696 363L692 365L695 368L695 370L701 370L701 376L698 377L696 381M703 396L700 390L700 386L702 384L696 381M717 313L712 318L708 318L705 321L704 320L703 323L701 323L701 325L696 330L697 335M703 350L697 350L697 348L695 348L695 346L694 347L692 345L700 337L702 337L702 335L696 339L697 335M701 440L700 437L707 426L706 423L710 421L711 418L709 416L712 415L712 413L715 414L721 410M711 452L708 443L706 443L704 441L705 440L701 440M719 400L719 398L715 398L712 395L710 395L711 396L708 398L707 397L709 395L707 393L703 396M704 350L703 350M728 346L724 346L724 348L721 349L720 352L717 349L715 351L712 350L712 352L708 346L705 347L704 350M731 383L730 384L728 382L724 382L723 381L725 379L723 379L723 377L722 378L720 376L722 374L721 373L723 373L722 370L726 370L727 367L724 366L724 368L720 368L720 366L717 363L719 359L715 359L716 358L713 355L704 350M713 293L711 291L714 288L710 288L706 284L704 286L705 287L699 290L701 292L697 296L697 298L700 301L704 301L706 299L708 300M715 310L712 311L707 308L709 304L708 300M709 299L708 300M709 299L711 299L711 295M711 295L708 296L709 299M711 452L712 453M713 293L711 295M712 454L713 454M713 293L716 296L714 296L714 298L718 304M719 400L725 394L724 393L729 390L727 388L730 387L731 383M719 400L718 403L721 406L721 410M737 420L736 417L732 419L730 415L727 418L724 417L724 410L721 410M727 282L729 280L729 270L734 275L734 277L740 271L741 272L744 269L748 269L750 266L758 266L761 263L763 263L763 259M732 296L732 293L729 290L727 290L727 288L724 287L727 282M741 384L738 387L731 383M739 421L740 421M740 312L742 312M749 379L744 376L743 382L741 384M744 388L741 384M745 388L746 388M761 218L761 220L760 219L758 221L753 214L754 211L768 199L770 205L772 193L776 191L775 183L782 168L776 160L773 162L773 164L758 165L755 156L756 153L752 149L749 152L747 152L747 150L744 148L748 142L746 138M746 388L747 387M748 387L749 387M750 386L751 386M753 386L754 386M755 385L756 385M825 258L820 258L816 252L814 254L814 252L811 254L810 253L808 257L806 257L802 251L801 246L798 249L799 250L796 251L793 245L790 246L791 241L789 239L781 239L779 235L770 236L766 232L766 226L759 227M759 227L758 223L763 221L763 219L762 220L761 218M759 227L756 229L756 233L753 230L750 231L748 229L747 232L750 234L752 238L750 241L752 249L757 248L759 246L762 255L762 257L760 257L763 259M761 218L761 218M761 218L761 218M761 218L761 218M763 259L764 258L769 263L769 265L772 262L773 263L775 271L777 273L778 272L776 274L776 278L778 278L777 279L780 282L778 286L780 286M620 342L621 341L620 342M649 424L650 423L649 424M677 396L677 396"/><path class="leaflet-interactive" stroke="#3388ff" stroke-opacity="0" stroke-width="3" stroke-linecap="round" stroke-linejoin="round" fill="#3388ff" fill-opacity="0" fill-rule="evenodd" d="M712 289L714 289L709 288L707 284L702 289L699 290L701 292L700 294L697 295L697 298L700 301L704 301L706 299L707 300L709 298L708 295L713 294L711 292L712 289z"/><path class="leaflet-interactive" stroke="#3388ff" stroke-opacity="0" stroke-width="3" stroke-linecap="round" stroke-linejoin="round" fill="#3388ff" fill-opacity="0" fill-rule="evenodd" d="M716 302L717 301L714 298L714 296L716 296L713 293L711 295L711 299L708 300L709 304L707 308L715 310L717 306L716 305L718 303L715 302zM716 302L716 302z"/><path class="leaflet-interactive" stroke="#3388ff" stroke-opacity="0" stroke-width="3" stroke-linecap="round" stroke-linejoin="round" fill="#3388ff" fill-opacity="0" fill-rule="evenodd" d="M713 289L711 291L716 296L714 296L714 298L721 307L728 301L728 298L732 296L730 290L728 290L725 287L725 285L728 282L720 281L720 273L719 274L717 272L718 271L716 267L710 269L707 275L701 275L696 277L696 279L693 278L693 275L691 273L689 273L687 279L684 280L684 284L688 292L690 292L685 295L689 297L689 303L685 305L682 310L682 314L685 316L686 319L683 325L684 326L681 330L684 333L693 336L695 334L696 335L696 331L700 327L701 323L704 321L705 322L708 318L712 318L717 313L714 310L710 310L707 308L709 304L707 299L705 301L699 301L697 299L697 296L701 292L699 290L702 289L707 284L709 288L713 289zM711 295L708 296L709 299L711 299L711 295zM716 302L715 302zM724 304L724 305z"/><path class="leaflet-interactive" stroke="#3388ff" stroke-opacity="0" stroke-width="3" stroke-linecap="round" stroke-linejoin="round" fill="#3388ff" fill-opacity="0" fill-rule="evenodd" d="M656 350L666 348L669 345L670 346L670 344L676 344L682 340L683 333L681 329L684 327L683 326L686 321L685 316L682 313L684 309L683 306L688 305L690 301L689 298L685 295L690 292L688 292L687 288L682 292L679 291L676 292L675 294L673 292L668 300L666 299L663 302L660 312L657 315L657 317L660 320L656 326L658 338L655 347L656 350z"/><path class="leaflet-interactive" stroke="#3388ff" stroke-opacity="0" stroke-width="3" stroke-linecap="round" stroke-linejoin="round" fill="#fff" fill-opacity="0" fill-rule="evenodd" d="M550 265L555 278L553 280L559 286L559 289L563 289L565 287L566 288L566 286L573 286L575 289L574 293L569 297L579 302L579 306L582 306L585 309L587 309L589 307L587 305L592 303L596 305L600 302L605 301L607 305L604 310L600 312L600 318L608 322L617 319L620 316L620 308L622 304L623 305L623 303L626 302L629 305L629 307L625 313L628 315L632 315L632 317L637 318L637 320L642 320L643 317L646 316L645 313L653 304L652 303L653 304L655 302L654 301L656 303L658 303L661 300L663 302L666 299L667 300L673 292L675 294L679 291L682 292L686 290L684 280L687 279L689 273L691 273L693 275L692 278L695 279L700 275L702 277L705 274L706 275L709 273L709 269L713 269L716 267L718 271L717 272L719 274L720 273L720 281L727 282L729 280L729 274L727 272L729 270L734 275L734 277L740 271L741 272L744 269L748 269L754 265L757 266L763 262L763 260L760 257L762 257L762 255L759 246L752 250L750 243L752 239L747 232L748 229L750 231L753 230L756 233L756 229L759 227L758 223L763 221L762 218L760 218L761 219L759 221L757 220L757 218L753 214L754 211L762 206L768 199L770 205L772 193L776 191L775 183L782 168L776 160L773 162L773 164L758 164L755 157L756 152L754 152L751 149L748 152L744 148L748 142L747 139L742 138L734 146L734 148L739 148L740 155L733 162L734 163L729 170L730 171L727 177L729 177L728 180L715 187L707 183L700 199L700 203L698 204L698 207L701 210L704 207L713 210L717 205L722 206L732 216L733 221L731 223L726 222L724 220L716 223L714 222L712 225L708 225L703 231L704 232L699 236L691 236L686 242L682 244L676 243L673 240L668 240L665 248L669 256L661 260L656 266L644 270L633 269L624 272L613 279L610 278L609 276L598 275L594 272L592 273L585 268L564 268L551 266z"/><path class="leaflet-interactive" stroke="#3388ff" stroke-opacity="0" stroke-width="3" stroke-linecap="round" stroke-linejoin="round" fill="#3388ff" fill-opacity="0" fill-rule="evenodd" d="M762 298L766 298L773 290L774 291L780 286L780 282L777 279L778 278L776 278L776 274L778 272L777 273L775 271L775 267L772 262L769 265L769 262L764 258L762 263L759 264L760 265L753 265L753 267L751 266L748 269L744 269L734 277L734 275L729 270L727 272L729 274L729 279L725 284L725 287L728 290L730 290L732 296L738 293L738 291L743 286L748 286L752 290L749 293L750 294L745 298L746 299L743 301L747 303L747 305L746 304L746 306L745 305L743 309L748 306L749 307L748 306L754 301L762 298zM755 303L755 303zM752 304L752 304zM755 303L756 304L755 303zM756 306L755 305L756 306zM758 300L757 301L758 300zM754 303L754 304zM740 290L740 290zM758 301L758 301zM759 306L759 306zM763 298L764 298z"/><path class="leaflet-interactive" stroke="#3388ff" stroke-opacity="0" stroke-width="3" stroke-linecap="round" stroke-linejoin="round" fill="#3388ff" fill-opacity="0" fill-rule="evenodd" d="M811 270L813 263L815 263L819 269L819 267L817 266L821 265L824 262L825 259L817 256L817 252L815 254L813 252L809 254L808 257L806 257L802 251L801 246L798 249L799 250L796 251L793 245L790 246L791 241L789 239L781 239L779 235L775 237L773 235L770 236L766 232L766 228L764 226L760 226L756 229L756 233L753 230L750 231L748 229L747 232L750 234L752 239L750 241L752 249L754 250L759 246L762 255L762 257L760 257L762 259L764 258L767 261L768 260L768 263L770 265L772 262L773 263L775 271L777 273L778 272L776 274L776 278L778 278L777 279L780 282L780 286L783 285L789 276L793 280L800 281L798 274L806 274L809 269L811 270z"/><path class="leaflet-interactive" stroke="#3388ff" stroke-opacity="0" stroke-width="3" stroke-linecap="round" stroke-linejoin="round" fill="#3388ff" fill-opacity="0" fill-rule="evenodd" d="M762 227L766 227L766 231L770 236L773 235L775 237L779 235L781 239L789 239L791 241L790 246L793 245L797 251L799 251L798 248L801 246L802 251L806 257L808 257L808 255L813 252L815 254L817 252L817 256L823 259L824 252L822 243L829 238L838 241L839 240L839 236L846 225L845 224L848 216L847 215L852 210L852 202L855 200L839 204L836 207L835 206L836 207L834 209L823 210L819 205L821 203L818 198L820 195L816 195L809 188L806 189L803 186L797 187L795 185L795 178L793 178L792 171L789 168L790 165L788 165L789 162L787 161L788 160L785 156L786 155L782 147L783 146L779 144L780 143L778 141L772 141L762 135L747 137L746 138L748 142L743 148L746 149L747 152L749 152L752 149L756 153L755 156L758 165L773 164L775 160L782 167L780 175L775 182L776 190L772 192L770 205L768 199L757 210L754 211L753 214L758 221L760 219L761 220L761 218L762 220L763 219L763 221L758 222L759 226L762 227z"/><path class="leaflet-interactive" stroke="#3388ff" stroke-opacity="0" stroke-width="3" stroke-linecap="round" stroke-linejoin="round" fill="#3388ff" fill-opacity="0" fill-rule="evenodd" d="M741 384L745 388L750 385L745 380L743 380L741 384zM749 379L744 376L743 377L746 380L750 380zM748 382L746 380L748 382zM748 381L751 382L748 381zM747 380L746 380zM749 383L749 382zM749 382L749 382z"/><path class="leaflet-interactive" stroke="#3388ff" stroke-opacity="0" stroke-width="3" stroke-linecap="round" stroke-linejoin="round" fill="#3388ff" fill-opacity="0" fill-rule="evenodd" d="M712 351L711 352L708 347L704 349L711 355L714 355L716 359L718 359L717 364L719 364L721 368L725 366L727 368L726 371L722 369L723 372L720 376L722 378L723 377L723 379L725 379L723 382L729 382L728 383L732 383L738 387L745 379L743 378L744 376L749 379L749 376L741 368L737 355L729 349L727 345L724 346L721 352L719 352L717 349L715 351L712 351z"/><path class="leaflet-interactive" stroke="#3388ff" stroke-opacity="0" stroke-width="3" stroke-linecap="round" stroke-linejoin="round" fill="#fff" fill-opacity="0" fill-rule="evenodd" d="M721 410L724 411L724 417L727 418L731 415L732 418L736 417L738 420L739 416L743 414L742 411L743 412L747 410L747 402L750 401L748 397L751 395L747 394L742 389L744 387L741 384L738 387L732 383L730 387L727 388L729 390L726 391L724 393L725 394L718 401L718 403L721 406L721 409zM751 394L752 395L752 393L750 392L751 394zM751 392L751 393zM752 397L752 397zM753 387L753 387zM751 391L752 392L751 391zM752 392L752 391zM750 402L750 401zM753 395L753 395zM753 390L753 390zM748 405L749 405zM752 395L752 396zM748 402L748 402zM743 416L743 416zM749 387L750 388L749 387zM749 408L749 408zM751 397L750 396L751 397zM753 394L753 395zM754 388L754 388zM749 408L749 408zM750 392L750 392zM753 394L753 394zM748 394L749 393L748 394zM742 417L742 417zM749 401L750 402L749 401zM750 396L750 397zM749 393L749 393zM749 391L749 391zM751 394L751 394zM752 397L752 396zM743 414L743 414zM756 393L756 393zM752 391L752 391zM752 395L752 395zM756 387L756 387zM742 413L743 412L742 413zM743 413L744 412L743 413zM753 394L753 394zM756 387L756 387zM751 394L752 394zM750 394L750 394zM742 413L742 412zM753 395L753 395zM751 394L751 394z"/><path class="leaflet-interactive" stroke="#3388ff" stroke-opacity="0" stroke-width="3" stroke-linecap="round" stroke-linejoin="round" fill="#3388ff" fill-opacity="0" fill-rule="evenodd" d="M706 356L707 357L703 359L699 355L699 360L697 360L696 363L692 365L695 368L695 370L701 370L701 377L699 377L696 380L700 384L702 384L699 388L703 396L706 395L706 393L709 395L707 397L708 398L711 395L713 395L714 398L721 399L725 394L724 393L729 390L727 388L729 388L731 384L728 383L729 382L723 382L725 380L721 376L723 372L722 369L726 371L727 368L725 366L721 368L719 364L717 364L719 359L715 359L716 357L714 355L710 355L705 350L703 351L704 353L706 353L706 356zM724 380L725 380zM707 397L707 397zM697 371L697 371z"/><path class="leaflet-interactive" stroke="#3388ff" stroke-opacity="0" stroke-width="3" stroke-linecap="round" stroke-linejoin="round" fill="#fff" fill-opacity="0" fill-rule="evenodd" d="M726 440L725 437L727 439L726 438L729 437L727 437L727 435L733 435L729 433L731 433L731 429L733 427L731 425L733 425L733 423L734 424L732 426L735 425L734 424L737 421L737 419L732 419L730 415L728 418L725 417L723 409L720 410L720 412L716 414L713 413L710 416L711 418L706 423L707 426L705 430L702 432L700 440L704 440L706 442L705 443L708 442L709 449L712 452L719 446L718 443L722 444L724 442L723 441L726 440zM721 444L720 445L721 444zM729 438L730 437L729 438zM730 434L730 434zM733 429L733 428zM719 445L719 444zM733 424L733 424zM719 444L718 443L719 444zM733 429L733 429zM731 429L730 429zM734 426L734 426zM731 434L731 433zM732 425L732 425zM735 425L735 425zM736 422L736 422zM735 423L735 423zM731 425L732 424L731 425z"/><path class="leaflet-interactive" stroke="#3388ff" stroke-opacity="0" stroke-width="3" stroke-linecap="round" stroke-linejoin="round" fill="#fff" fill-opacity="0" fill-rule="evenodd" d="M719 400L718 398L714 398L713 395L711 395L708 398L707 397L709 395L707 393L701 397L697 395L697 397L695 397L692 400L688 400L685 403L687 405L687 410L683 414L682 418L684 418L683 421L686 426L685 428L687 428L685 436L691 437L687 442L689 444L696 441L699 443L700 442L702 433L707 426L706 423L711 419L710 416L713 413L716 414L721 411L721 407L718 403L719 400z"/><path class="leaflet-interactive" stroke="#3388ff" stroke-opacity="0" stroke-width="3" stroke-linecap="round" stroke-linejoin="round" fill="#3388ff" fill-opacity="0" fill-rule="evenodd" d="M704 350L705 347L708 346L711 351L715 351L717 349L720 352L722 349L724 349L723 348L725 346L729 345L729 343L736 336L736 334L736 336L739 335L740 332L741 333L740 330L741 331L749 327L752 328L755 322L745 322L745 320L739 318L735 319L736 320L732 323L732 325L728 325L725 321L728 320L728 318L725 315L722 316L717 313L712 318L708 318L705 321L704 320L704 322L703 321L704 322L701 323L701 325L696 330L696 339L702 335L702 337L700 337L692 345L699 351L704 350zM739 317L740 317zM739 316L739 316zM742 332L741 332zM740 315L740 314zM741 313L741 312zM735 339L735 338zM739 317L738 316zM740 313L740 313zM746 320L746 320zM746 320L746 320zM746 320L746 320zM697 337L697 337z"/><path class="leaflet-interactive" stroke="#3388ff" stroke-opacity="0" stroke-width="3" stroke-linecap="round" stroke-linejoin="round" fill="#3388ff" fill-opacity="0" fill-rule="evenodd" d="M675 372L678 371L681 373L683 371L685 378L690 378L691 380L694 379L696 381L697 378L701 377L701 371L697 371L695 367L692 366L696 364L699 355L703 359L707 357L703 350L697 350L697 348L695 348L694 346L693 347L692 344L702 336L697 337L696 339L697 336L695 334L693 336L684 333L682 340L677 344L670 343L669 346L656 351L663 367L670 372L674 372zM683 372L683 373z"/><path class="leaflet-interactive" stroke="#3388ff" stroke-opacity="0" stroke-width="3" stroke-linecap="round" stroke-linejoin="round" fill="#3388ff" fill-opacity="0" fill-rule="evenodd" d="M662 364L649 364L652 367L654 367L653 370L650 369L649 373L650 378L654 381L655 385L648 389L640 389L642 392L640 396L642 396L645 399L644 400L646 399L647 402L648 399L650 397L651 398L651 396L658 397L658 393L668 395L671 398L675 398L677 396L678 399L682 395L682 401L684 403L687 400L693 400L692 399L698 395L701 397L702 396L702 392L700 390L700 386L702 384L698 383L694 379L691 380L690 377L685 378L683 372L670 372L667 369L666 370L662 364zM646 389L646 389zM662 364L662 364zM675 372L675 372zM676 396L677 396z"/><path class="leaflet-interactive" stroke="#3388ff" stroke-opacity="0" stroke-width="3" stroke-linecap="round" stroke-linejoin="round" fill="#fff" fill-opacity="0" fill-rule="evenodd" d="M669 442L671 438L675 438L675 440L677 440L676 437L678 435L682 437L685 434L685 430L687 429L685 429L686 426L684 424L684 418L682 418L682 416L683 413L686 412L685 411L687 409L687 405L684 402L683 403L682 396L678 399L677 396L675 398L671 398L668 395L657 393L657 397L649 397L647 401L647 412L649 416L647 418L646 417L646 419L643 421L648 420L650 422L650 424L648 424L647 427L652 432L652 429L656 431L658 428L664 428L663 431L665 431L661 440L665 438L665 442L669 441zM649 424L649 424z"/><path class="leaflet-interactive" stroke="#3388ff" stroke-opacity="0" stroke-width="3" stroke-linecap="round" stroke-linejoin="round" fill="#fff" fill-opacity="0" fill-rule="evenodd" d="M682 464L683 460L689 462L690 459L692 461L695 458L697 460L699 458L705 458L708 455L708 453L711 452L708 442L705 443L706 442L704 440L700 440L700 443L698 443L697 441L689 444L687 442L691 438L690 436L685 437L685 435L679 435L677 437L676 436L678 438L676 440L674 438L670 439L671 440L669 442L669 448L664 453L665 456L662 460L659 461L658 464L656 464L655 467L654 466L652 469L651 468L652 471L650 475L652 481L656 481L658 479L655 476L657 472L669 469L671 467L679 467L682 464zM710 453L710 453zM676 468L675 469L676 468zM673 469L674 469zM687 465L687 465zM657 473L658 474L658 472L657 473zM673 469L673 468zM657 474L655 474L658 474zM683 466L683 466zM683 466L683 466zM678 467L678 467zM684 462L684 462zM687 466L687 466zM687 466L686 466zM708 476L709 477L707 478L709 478L708 476zM677 467L677 467zM656 477L656 477zM658 475L658 475zM658 480L658 480zM701 473L702 474L701 473zM701 474L701 474zM700 459L700 459zM700 459L700 459z"/><path class="leaflet-interactive" stroke="#3388ff" stroke-opacity="0" stroke-width="3" stroke-linecap="round" stroke-linejoin="round" fill="#3388ff" fill-opacity="0" fill-rule="evenodd" d="M649 430L648 433L645 432L644 433L646 433L644 435L643 434L642 437L641 435L639 435L638 438L636 438L630 434L628 438L621 442L614 439L611 443L609 443L616 448L621 447L623 449L622 452L620 452L617 455L620 458L625 457L627 459L625 463L627 464L626 466L637 470L642 468L645 469L645 471L647 471L650 469L651 470L651 468L652 469L655 466L656 467L656 465L659 464L659 462L665 457L665 451L669 449L668 447L670 445L668 441L665 443L664 438L662 440L661 439L665 432L663 432L663 428L658 428L655 431L653 429L652 432L649 430zM614 440L614 440zM646 474L646 474z"/><path class="leaflet-interactive" stroke="#3388ff" stroke-opacity="0" stroke-width="3" stroke-linecap="round" stroke-linejoin="round" fill="#3388ff" fill-opacity="0" fill-rule="evenodd" d="M654 483L647 484L642 489L642 495L644 497L650 499L658 493L658 490L662 486L659 482L654 482zM671 616L671 616zM679 582L680 581zM669 616L669 616zM665 508L666 507L665 508zM715 524L715 523zM671 615L671 615zM667 515L668 515zM666 515L667 515zM684 586L688 586L690 584L689 583L685 586zM685 575L686 576L685 575zM685 576L685 576zM669 514L669 514zM667 513L668 512L667 513zM671 576L671 576zM684 588L684 588zM687 576L687 576zM671 508L672 509L671 508zM691 563L691 563zM700 569L700 568zM690 567L691 566zM683 586L684 585zM649 588L651 586L653 587L649 587zM704 575L704 575zM673 517L674 516L673 517zM674 576L674 576zM689 559L690 559zM673 514L673 514zM705 563L706 563zM672 509L672 509zM665 513L666 513zM697 567L698 567zM691 581L691 581zM689 582L690 581zM695 579L696 580L695 579zM684 583L685 582zM697 571L697 571zM705 573L705 573zM682 575L683 574L682 575zM691 558L692 557L691 558zM690 555L690 554zM693 559L693 559zM666 513L666 513zM685 575L685 576zM653 584L653 583zM707 554L708 555L707 554zM667 512L667 512zM673 513L674 512L673 513zM667 516L668 516zM684 566L684 565zM692 581L692 581zM706 568L706 569zM696 565L696 565zM708 562L708 562zM691 515L691 515zM701 572L701 572zM683 573L683 573zM691 586L691 586zM689 560L690 560zM716 560L716 560zM687 564L687 564zM691 554L691 554zM707 562L707 562zM657 582L658 581L657 582zM665 578L665 578zM695 578L696 578zM679 582L679 582zM686 559L686 559zM712 564L712 563zM687 516L687 516zM658 582L658 582zM697 579L698 578zM666 586L666 586zM666 577L667 577zM657 584L657 584zM672 575L672 575zM705 568L705 568zM669 582L669 582zM689 520L689 520zM693 557L694 557zM686 517L686 517zM702 566L702 565zM712 561L712 560zM692 589L692 589zM676 575L676 575zM667 585L667 585zM671 576L671 576zM673 600L674 600zM690 576L690 575zM692 583L692 582zM677 579L677 579zM682 591L682 591zM707 514L707 514zM712 566L712 565zM677 487L677 487zM689 516L689 516zM684 490L684 490zM674 606L675 606zM666 583L666 583zM671 575L672 575zM676 584L677 584zM674 602L674 602zM673 602L673 601zM696 534L696 534zM682 564L682 564zM684 521L684 521zM677 607L677 607zM674 606L674 606zM672 602L672 602zM671 510L671 510zM671 519L671 519zM674 604L674 604zM673 601L673 601zM679 596L679 596zM703 570L703 570zM693 587L693 586zM666 584L666 584zM685 518L685 518zM693 516L693 517zM707 574L707 574zM674 513L675 513zM663 484L663 484zM699 563L700 563zM711 560L711 561zM675 514L675 514zM700 562L700 562zM673 570L674 570zM690 520L690 520zM712 557L712 558zM715 558L715 558zM687 571L687 571zM691 568L691 569zM674 599L674 599z"/><path class="leaflet-interactive" stroke="#3388ff" stroke-opacity="0" stroke-width="3" stroke-linecap="round" stroke-linejoin="round" fill="#fff" fill-opacity="0" fill-rule="evenodd" d="M624 408L625 405L626 408L630 404L631 405L633 401L635 401L636 404L640 402L640 406L642 406L642 408L645 411L648 407L648 403L646 399L644 399L644 397L640 396L642 392L640 390L642 390L643 388L646 389L654 386L655 383L653 380L651 378L647 378L645 375L641 373L641 375L639 375L641 379L637 383L638 382L636 387L632 387L633 388L629 394L627 394L626 391L623 392L619 390L619 392L617 392L619 394L616 400L619 401L619 403L621 403L624 407zM646 388L646 389zM618 393L618 393zM646 389L646 389zM629 394L629 394z"/><path class="leaflet-interactive" stroke="#3388ff" stroke-opacity="0" stroke-width="3" stroke-linecap="round" stroke-linejoin="round" fill="#fff" fill-opacity="0" fill-rule="evenodd" d="M582 420L587 430L596 427L596 419L601 414L601 410L602 411L604 409L603 408L607 406L607 410L609 410L607 412L609 414L615 412L616 415L623 415L623 411L619 409L618 410L618 408L621 405L624 408L623 404L619 404L619 402L615 398L619 395L618 392L617 393L620 390L623 392L626 391L626 393L629 394L633 387L637 386L637 382L641 379L639 375L641 375L641 373L637 373L634 371L633 372L633 370L630 371L629 368L622 369L622 367L620 367L618 369L617 366L616 369L610 369L607 366L608 363L606 359L599 358L596 353L591 356L593 360L588 365L587 360L586 365L582 363L583 368L577 370L575 368L574 369L572 365L571 368L564 365L560 355L554 355L552 359L555 362L552 364L553 365L551 367L559 373L563 381L561 383L564 387L566 408L568 411L568 407L570 405L574 409L573 412L576 415L578 413L582 420zM623 392L623 392zM629 393L629 393zM617 392L617 392z"/><path class="leaflet-interactive" stroke="#3388ff" stroke-opacity="0" stroke-width="3" stroke-linecap="round" stroke-linejoin="round" fill="#fff" fill-opacity="0" fill-rule="evenodd" d="M647 408L646 411L644 411L643 408L642 409L642 407L640 406L640 402L636 404L636 402L633 401L632 404L630 404L626 408L625 405L624 408L621 405L618 408L618 410L619 409L623 411L623 414L617 414L614 418L611 419L608 417L606 419L604 417L602 421L603 426L610 425L607 434L610 437L612 437L609 441L611 443L615 439L621 443L623 441L622 440L628 438L630 434L632 435L632 437L637 438L639 436L638 435L642 436L642 434L644 435L646 433L644 433L645 432L648 433L649 428L647 428L647 424L649 424L649 420L644 421L646 419L645 418L649 416L647 408zM649 423L649 423zM649 424L650 424z"/><path class="leaflet-interactive" stroke="#3388ff" stroke-opacity="0" stroke-width="3" stroke-linecap="round" stroke-linejoin="round" fill="#fff" fill-opacity="0" fill-rule="evenodd" d="M615 415L613 411L612 413L609 414L607 412L609 410L607 410L608 407L604 407L604 409L602 411L601 410L600 415L596 419L597 426L594 429L594 427L588 430L581 420L579 416L580 415L578 413L576 415L573 412L574 409L570 405L568 407L568 411L566 409L566 401L564 401L564 405L562 403L561 406L563 409L561 411L559 409L558 410L559 417L562 416L563 419L563 429L561 429L562 431L554 439L555 440L553 444L555 446L553 448L554 449L558 447L564 447L562 449L564 452L563 453L565 456L569 456L566 464L571 465L575 470L579 470L581 468L583 470L582 471L586 473L587 468L585 463L587 461L590 462L593 459L597 462L600 459L604 461L607 458L608 460L612 458L611 457L614 454L617 455L620 452L622 452L623 449L621 447L616 448L613 444L609 444L611 439L611 437L608 434L610 425L608 424L604 426L602 423L604 417L606 419L608 417L612 419L615 416z"/><path class="leaflet-interactive" stroke="#3388ff" stroke-opacity="0" stroke-width="3" stroke-linecap="round" stroke-linejoin="round" fill="#fff" fill-opacity="0" fill-rule="evenodd" d="M490 335L481 332L471 332L463 334L460 339L459 338L457 340L454 338L445 343L436 342L435 339L431 339L431 341L429 341L427 344L415 342L415 344L413 346L412 345L411 350L409 352L405 352L401 356L401 360L406 367L405 372L403 372L402 369L399 370L399 374L402 376L402 382L405 385L408 384L413 389L414 388L418 390L422 394L424 390L429 391L441 402L443 400L446 401L445 402L450 407L453 406L455 410L458 409L460 413L462 411L462 413L466 411L469 414L477 414L479 412L483 412L482 417L484 419L491 410L499 412L501 414L503 412L505 416L509 418L510 423L521 422L527 416L532 415L535 413L535 411L538 410L542 410L549 414L552 412L551 411L553 407L558 411L558 409L562 411L562 403L564 405L564 401L566 401L564 392L565 391L563 384L561 382L564 381L560 377L558 371L551 370L552 373L551 372L550 375L546 375L547 378L543 376L542 379L540 377L537 378L535 376L536 373L533 373L534 372L529 369L521 371L516 368L510 368L505 365L499 365L495 363L489 356L491 354L491 347L489 347L488 344L491 338L487 336L490 335z"/><path class="leaflet-interactive" stroke="#3388ff" stroke-opacity="0" stroke-width="3" stroke-linecap="round" stroke-linejoin="round" fill="#3388ff" fill-opacity="0" fill-rule="evenodd" d="M656 350L655 347L658 340L656 326L660 320L657 314L661 310L661 306L663 303L662 300L658 303L654 301L655 302L653 304L652 303L653 304L646 311L646 316L644 316L642 320L638 320L635 317L631 321L631 327L638 331L639 330L642 333L642 343L635 343L635 347L625 345L626 348L624 350L627 353L625 353L626 355L624 357L626 360L620 360L619 363L621 364L619 367L617 367L621 367L623 369L629 368L630 371L633 370L633 372L634 371L637 374L640 373L650 378L649 371L651 369L655 369L652 366L651 367L651 365L649 364L658 363L659 365L661 363L656 350zM661 361L661 361zM622 368L622 368z"/><path class="leaflet-interactive" stroke="#3388ff" stroke-opacity="0" stroke-width="3" stroke-linecap="round" stroke-linejoin="round" fill="#fff" fill-opacity="0" fill-rule="evenodd" d="M625 339L624 344L620 342L621 341L619 341L616 338L616 328L609 322L604 321L602 318L600 318L600 312L604 310L607 305L605 301L600 302L597 305L592 303L589 304L589 307L587 309L580 306L579 302L577 302L571 297L568 297L573 293L575 289L574 286L566 286L566 288L565 287L562 289L562 287L559 289L559 286L556 284L554 280L554 274L550 265L542 267L540 269L542 272L541 275L535 278L532 277L524 284L522 288L516 289L514 299L511 303L512 306L514 304L518 304L518 307L522 307L524 309L527 308L529 312L538 312L542 315L544 313L546 314L546 312L549 309L549 304L558 308L559 305L561 307L563 305L566 306L565 307L572 313L574 314L574 311L577 314L578 313L582 318L590 320L597 336L588 348L588 350L591 353L587 355L580 352L579 353L582 359L587 361L588 360L588 364L591 363L590 362L592 362L593 360L590 356L592 356L595 353L598 355L599 358L606 359L608 363L607 366L610 369L616 369L617 366L620 366L620 360L626 360L625 353L627 353L624 350L626 348L625 345L634 347L636 346L634 344L635 343L641 344L641 338L643 336L642 332L633 328L630 325L626 325L626 329L624 331L625 334L629 336L628 339L626 339zM621 341L622 341zM595 333L596 333zM622 342L622 342zM625 339L625 339z"/><path class="leaflet-interactive" stroke="#3388ff" stroke-opacity="0" stroke-width="3" stroke-linecap="round" stroke-linejoin="round" fill="#fff" fill-opacity="0" fill-rule="evenodd" d="M595 333L595 329L589 319L588 320L586 318L582 318L580 314L579 315L574 311L574 313L572 313L564 305L562 305L561 307L559 305L557 308L552 304L548 304L549 309L546 312L546 314L544 313L542 315L538 312L529 313L527 308L524 309L522 307L518 307L518 305L515 304L503 309L498 309L493 312L494 314L497 313L496 319L503 325L498 328L498 330L501 331L501 334L499 336L493 334L491 336L487 336L491 338L488 343L488 345L491 348L491 354L489 356L495 363L499 365L502 364L510 368L519 369L521 371L529 369L536 374L535 376L537 378L540 377L542 379L543 376L547 378L546 375L547 376L550 375L551 372L552 373L551 370L553 370L552 365L554 362L552 358L555 354L560 356L563 363L567 367L570 368L572 366L574 368L573 369L576 368L578 370L583 368L582 363L585 363L586 365L587 361L583 359L579 354L581 352L586 355L591 353L588 350L588 348L592 344L591 343L595 341L594 339L597 336L596 333z"/><path class="leaflet-interactive" stroke="#3388ff" stroke-opacity="0" stroke-width="3" stroke-linecap="round" stroke-linejoin="round" fill="#fff" fill-opacity="0" fill-rule="evenodd" d="M631 325L631 321L634 318L631 315L625 313L629 306L627 302L623 303L623 305L622 304L620 308L620 316L618 319L607 322L609 322L616 329L615 330L617 334L617 339L619 339L619 341L621 341L624 344L624 339L628 339L629 336L625 333L625 327L627 325L631 325zM621 341L621 342zM622 342L622 342z"/><path class="leaflet-interactive" stroke="#3388ff" stroke-opacity="0" stroke-width="3" stroke-linecap="round" stroke-linejoin="round" fill="#fff" fill-opacity="0" fill-rule="evenodd" d="M544 266L540 261L537 252L535 252L536 249L532 249L520 241L510 241L504 239L503 240L501 238L500 239L498 234L501 229L499 226L501 222L500 218L498 218L494 209L488 205L485 206L481 204L481 202L476 198L477 197L474 196L474 191L472 193L467 192L467 196L462 201L460 200L456 204L458 213L456 217L452 219L443 218L436 215L430 233L430 235L433 237L432 239L427 238L426 236L424 238L417 240L416 239L411 242L415 245L415 251L418 258L418 261L415 263L416 264L413 267L414 272L409 276L397 281L396 283L394 283L394 285L387 285L382 292L379 291L377 293L377 289L373 291L370 290L371 292L369 292L366 295L365 294L362 297L363 300L360 301L361 306L362 305L361 308L364 311L365 309L370 311L372 319L371 320L373 322L371 324L367 324L378 329L380 331L379 336L382 338L383 337L391 342L396 341L396 345L398 347L397 349L403 353L411 351L412 346L415 344L415 342L427 344L432 339L434 339L437 342L442 343L454 338L456 340L459 339L464 334L468 334L471 332L481 332L491 336L493 334L499 336L501 332L498 329L503 325L497 319L497 313L494 314L493 311L511 306L516 289L522 288L526 282L532 277L534 277L535 279L537 276L539 276L542 272L540 269L542 267z"/><path class="leaflet-interactive" stroke="#3388ff" stroke-opacity="0" stroke-width="3" stroke-linecap="round" stroke-linejoin="round" fill="#3388ff" fill-opacity="0" fill-rule="evenodd" d="M737 462L740 467L741 461L745 456L749 444L749 438L743 438L738 444L736 450L734 451L736 461zM770 431L770 431zM761 433L762 432L761 433zM731 452L730 453zM763 431L763 431zM730 451L729 452L730 451zM730 454L730 454zM730 451L730 451zM750 434L750 434zM745 460L746 460zM746 465L746 465zM750 435L751 435zM729 455L729 455zM736 463L737 463z"/><path class="leaflet-interactive" stroke="#3388ff" stroke-opacity="0" stroke-width="3" stroke-linecap="round" stroke-linejoin="round" fill="#3388ff" fill-opacity="0" fill-rule="evenodd" d="M686 461L686 463L684 463L685 464L689 462L686 461zM686 464L687 464zM688 462L688 462zM688 462L688 462zM688 462L688 462zM688 463L688 463zM688 462L688 462zM688 463L688 463zM688 463L688 463z"/><path class="leaflet-interactive" stroke="#3388ff" stroke-opacity="0" stroke-width="3" stroke-linecap="round" stroke-linejoin="round" fill="#3388ff" fill-opacity="0" fill-rule="evenodd" d="M682 465L682 464zM682 464L682 464z"/><path class="leaflet-interactive" stroke="#3388ff" stroke-opacity="0" stroke-width="3" stroke-linecap="round" stroke-linejoin="round" fill="#3388ff" fill-opacity="0" fill-rule="evenodd" d="M754 453L756 443L754 453zM743 476L749 468L743 476zM729 500L734 491L729 500zM726 525L726 516L726 525zM723 557L722 559L725 550L724 553zM698 590L703 583L698 590zM672 619L668 620L676 617L673 618zM639 598L640 599L639 591L639 598zM654 555L656 552L656 548L655 554zM652 523L648 515L651 521z"/></g></svg>